<?xml version="1.0" standalone="no"?>
<!DOCTYPE svg PUBLIC "-//W3C//DTD SVG 20010904//EN"
 "http://www.w3.org/TR/2001/REC-SVG-20010904/DTD/svg10.dtd">
<svg version="1.0" xmlns="http://www.w3.org/2000/svg"
 width="700.000000pt" height="700.000000pt" viewBox="0 0 700.000000 700.000000"
 preserveAspectRatio="xMidYMid meet">
<metadata>
Created by potrace 1.14, written by Peter Selinger 2001-2017
</metadata>
<g transform="translate(0.000000,700.000000) scale(0.100000,-0.100000)"
fill="#000000" stroke="none">
<path d="M3278 6996 c-1 -2 -42 -6 -89 -10 -47 -4 -95 -8 -105 -10 -10 -2 -46
-7 -79 -11 -59 -7 -79 -10 -125 -20 -36 -8 -71 -14 -105 -20 -125 -22 -500
-139 -599 -186 -22 -11 -44 -19 -48 -19 -5 0 -79 -35 -166 -78 -217 -108 -378
-206 -553 -339 -704 -529 -1178 -1282 -1344 -2133 -13 -69 -27 -147 -31 -175
-3 -27 -8 -59 -10 -70 -26 -136 -26 -649 0 -840 3 -16 7 -55 11 -85 3 -30 15
-99 26 -153 141 -718 480 -1346 1002 -1856 45 -44 93 -89 107 -101 14 -12 39
-34 55 -49 42 -38 228 -180 300 -228 337 -228 615 -358 1045 -487 39 -12 153
-39 215 -52 135 -27 153 -30 224 -40 25 -3 57 -8 71 -10 196 -30 703 -24 920
12 165 27 224 38 275 51 33 8 68 16 77 18 85 17 343 102 485 161 172 71 393
187 558 293 64 41 249 173 260 185 6 6 28 24 49 40 59 44 131 108 235 210 83
81 121 122 252 270 61 70 289 385 289 400 0 2 19 35 42 72 220 363 400 895
453 1339 27 236 28 620 0 850 -18 149 -63 371 -105 520 -25 89 -33 115 -52
170 -133 389 -332 750 -596 1082 -77 96 -350 380 -442 459 -60 51 -242 188
-310 234 -36 24 -66 47 -68 52 -2 4 -7 8 -11 8 -5 0 -50 26 -102 57 -85 51
-311 168 -399 206 -254 110 -582 205 -835 243 -27 4 -57 9 -65 10 -8 2 -42 6
-76 9 -33 4 -74 9 -90 11 -33 5 -540 14 -546 10z m497 -480 c54 -6 120 -15
175 -22 68 -9 246 -46 320 -66 41 -11 79 -21 85 -23 5 -1 17 -5 25 -8 8 -3 56
-19 105 -35 603 -201 1165 -636 1535 -1186 38 -58 70 -108 70 -112 0 -3 8 -18
19 -32 32 -47 129 -237 176 -348 79 -184 155 -431 181 -584 2 -14 7 -36 10
-50 10 -41 12 -55 19 -110 4 -29 8 -60 10 -69 10 -55 19 -230 19 -376 -1 -194
-10 -316 -34 -465 -5 -30 -12 -71 -15 -90 -53 -322 -212 -729 -407 -1040 -169
-270 -415 -551 -633 -725 -27 -22 -62 -51 -77 -64 -31 -27 -29 -26 -194 -136
-218 -145 -456 -262 -704 -346 -106 -35 -274 -81 -345 -93 -16 -3 -41 -8 -55
-11 -217 -45 -587 -65 -740 -40 -701 114 -1301 804 -1579 1820 -22 80 -43 163
-46 186 -4 22 -10 51 -14 63 -5 11 -11 43 -15 69 -4 27 -9 59 -12 70 -11 55
-33 208 -39 267 -4 36 -9 79 -11 95 -23 205 -23 697 1 890 2 22 9 81 15 130 5
50 12 101 15 114 2 12 7 43 9 67 10 80 76 370 115 506 118 400 312 800 520
1068 307 396 687 642 1061 687 25 3 46 7 48 8 6 5 334 -3 387 -9z"/>
<path d="M3010 3927 c-3 -3 -23 -7 -45 -11 -114 -16 -227 -75 -323 -168 -251
-244 -254 -645 -7 -893 318 -318 860 -207 1029 210 31 78 38 111 42 220 4 129
-32 261 -100 362 -41 60 -136 152 -196 188 -84 51 -199 86 -305 92 -49 3 -92
3 -95 0z"/>
<path d="M3855 2109 c-269 -49 -441 -315 -374 -579 24 -94 58 -151 130 -222
95 -94 211 -139 343 -134 346 14 558 377 401 687 -58 113 -172 206 -291 238
-54 14 -158 19 -209 10z"/>
</g>
</svg>
