<svg xmlns="http://www.w3.org/2000/svg" xmlns:xlink="http://www.w3.org/1999/xlink" width="88" height="89" viewBox="0 0 88 89">
  <defs>
    <clipPath id="clip-path">
      <rect id="Rectangle_4905" data-name="Rectangle 4905" width="88" height="89" transform="translate(0.124 -0.089)" fill="#fff"/>
    </clipPath>
  </defs>
  <g id="Group_4810" data-name="Group 4810" transform="translate(-0.124 0.531)">
    <g id="Group_4809" data-name="Group 4809" transform="translate(0 -0.442)" clip-path="url(#clip-path)">
      <path id="Path_5135" data-name="Path 5135" d="M31.485,25.378c-1.475,0-1.784,1.3-1.784,3.226v7.549c0,1.922.309,3.226,1.784,3.226s1.784-1.3,1.784-3.226V28.6c0-1.922-.309-3.226-1.784-3.226M15.818,49.18h-.48v5.765h.48c2.025,0,2.814-.651,2.814-2.847,0-1.955-.789-2.917-2.814-2.917M84.429,0H3.886A3.9,3.9,0,0,0,0,3.886V84.429a3.9,3.9,0,0,0,3.886,3.886H84.429a3.9,3.9,0,0,0,3.886-3.886V3.886A3.9,3.9,0,0,0,84.429,0M58.455,21.568H63.5V43.187H58.455Zm-18.924,0h6.485l2.3,10.981h.137l2.059-10.981h6.348V43.187H52.195V30.867h-.137L49.69,43.187H46.532L44.095,30.867h-.137V43.187H39.531ZM10.018,30.9c0-6.211,1.955-9.608,7-9.608,4.906,0,6.519,3.534,6.519,8.578v1H18.632V28.535c0-1.922-.241-3.158-1.716-3.158S15.2,26.612,15.2,28.535v7.686c0,1.922.241,3.158,1.716,3.158s1.716-1.235,1.716-3.158V33.888h4.906v1c0,5.044-1.613,8.578-6.519,8.578-5.044,0-7-3.4-7-9.608ZM18.666,66.75a21.659,21.659,0,0,1-.48-4.7c-.1-2.059-.617-3.122-2.2-3.122h-.651V66.75H10.36V45.131h6.211c4.839,0,7,2.539,7,6.382,0,3.4-1.545,5.079-3.741,5.456,2.264.514,3.021,2.127,3.192,4.839.171,2.847.137,3.947.617,4.942Zm17-17.467H29.663V53.71h4.46v4.118h-4.46V62.6h6.005V66.75H24.721V45.131H35.668Zm-4.184-5.822c-5.044,0-7-3.534-7-9.745V31.04c0-6.211,1.955-9.745,7-9.745s7,3.534,7,9.745v2.676c0,6.211-1.955,9.745-7,9.745M47.72,66.75H36.842V45.131h5.044V62.6H47.72Zm5.988,0H48.664V45.131h5.044Zm12.5-17.467H60.2V53.71h4.46v4.118H60.2V62.6h6.005V66.75H55.262V45.131H66.209Zm11.709,0h-5.49v5.01h4.014v4.084H72.429V66.75H67.383V45.131H77.918Zm.339-18.414H73.351V28.535c0-1.922-.241-3.158-1.716-3.158s-1.716,1.235-1.716,3.158v7.686c0,1.922.241,3.158,1.716,3.158s1.716-1.235,1.716-3.158V33.888h4.906v1c0,5.044-1.613,8.578-6.519,8.578-5.044,0-7-3.4-7-9.608V30.9c0-6.211,1.955-9.608,7-9.608,4.906,0,6.519,3.534,6.519,8.578Z" transform="translate(0 0.253)" fill="#fff"/>
    </g>
  </g>
</svg>
