<svg id="Group_4814" data-name="Group 4814" xmlns="http://www.w3.org/2000/svg" width="249.674" height="73.487" viewBox="0 0 249.674 73.487">
  <g id="Group_334" data-name="Group 334" transform="translate(22.058 17.709)">
    <path id="Path_753" data-name="Path 753" d="M358.719,282.223a1.433,1.433,0,0,1-.588-1.039,14.622,14.622,0,0,1-.172-2.693v-6.674q0-5.192-2.279-7.564t-6.6-2.374a20.2,20.2,0,0,0-8.922,2.176l.539,4.993a22.324,22.324,0,0,1,3.554-1.434,11.378,11.378,0,0,1,3.164-.444,4.781,4.781,0,0,1,3.309.938,4.411,4.411,0,0,1,1.1,3.115,27.792,27.792,0,0,0-6.03.914,13.576,13.576,0,0,0-5.443,2.768,6.44,6.44,0,0,0-2.3,5.167,7.249,7.249,0,0,0,2.034,5.413,6.942,6.942,0,0,0,5.075,2,12.08,12.08,0,0,0,4.289-.766,7.9,7.9,0,0,0,3.212-2.1,5.307,5.307,0,0,0,2.109,2.1,6.862,6.862,0,0,0,3.384.766h2.206l.538-5.043h-.784A3.193,3.193,0,0,1,358.719,282.223Zm-6.841-1.211a6.407,6.407,0,0,1-2.059,1.31,5.784,5.784,0,0,1-2.108.468,3.634,3.634,0,0,1-2.5-.716,2.91,2.91,0,0,1-.784-2.25,3.487,3.487,0,0,1,2.256-3.164,12.878,12.878,0,0,1,5.2-1.285Zm-18.174.27a12.175,12.175,0,0,1-.221-2.793V249.916h-6.079v31.1a6.859,6.859,0,0,0,1.569,4.672,5.9,5.9,0,0,0,4.707,1.8h2.206l.538-5.043a7.389,7.389,0,0,1-1.936-.174A1.261,1.261,0,0,1,333.7,281.283ZM312.54,252.388H300.331v34.606h6.276V274.98h6.08q5.883,0,8.972-2.818t3.089-8.6Q324.748,252.387,312.54,252.388Zm4.24,15.82a6.87,6.87,0,0,1-4.828,1.483h-5.344V257.678h5.2a7.213,7.213,0,0,1,4.952,1.459,5.8,5.8,0,0,1,1.617,4.523A5.929,5.929,0,0,1,316.78,268.208Zm140.5,14.016a1.433,1.433,0,0,1-.588-1.039,14.626,14.626,0,0,1-.172-2.693v-6.674q0-5.192-2.279-7.564t-6.6-2.374a20.211,20.211,0,0,0-8.924,2.176l.54,4.993a22.334,22.334,0,0,1,3.554-1.434,11.378,11.378,0,0,1,3.163-.444,4.78,4.78,0,0,1,3.309.938,4.409,4.409,0,0,1,1.1,3.115,27.8,27.8,0,0,0-6.03.914,13.577,13.577,0,0,0-5.443,2.768,6.44,6.44,0,0,0-2.305,5.167,7.25,7.25,0,0,0,2.035,5.413,6.942,6.942,0,0,0,5.075,2,12.083,12.083,0,0,0,4.29-.766,7.9,7.9,0,0,0,3.211-2.1,5.3,5.3,0,0,0,2.108,2.1,6.861,6.861,0,0,0,3.384.766h2.206l.538-5.043h-.783A3.194,3.194,0,0,1,457.276,282.223Zm-6.84-1.211a6.417,6.417,0,0,1-2.059,1.31,5.788,5.788,0,0,1-2.109.468,3.632,3.632,0,0,1-2.5-.716,2.91,2.91,0,0,1-.784-2.25,3.487,3.487,0,0,1,2.256-3.164,12.881,12.881,0,0,1,5.2-1.285Zm18.508,1.259a1.262,1.262,0,0,1-.785-.989,12.206,12.206,0,0,1-.22-2.793V249.916H461.86v31.1a6.86,6.86,0,0,0,1.569,4.672,5.9,5.9,0,0,0,4.707,1.8h2.206l.538-5.043A7.386,7.386,0,0,1,468.945,282.272Zm-43.057-24.5a16.163,16.163,0,0,1,4.192.519,27.65,27.65,0,0,1,4.045,1.459l.687-6.03a19.038,19.038,0,0,0-8.874-2.028,18.6,18.6,0,0,0-9.192,2.249,16.068,16.068,0,0,0-6.325,6.328,18.974,18.974,0,0,0-2.281,9.417,19.6,19.6,0,0,0,2.206,9.468,15.522,15.522,0,0,0,6.2,6.3,18.6,18.6,0,0,0,9.194,2.225,20.872,20.872,0,0,0,9.07-2.027l-.687-6.032a25.65,25.65,0,0,1-4.142,1.483,17.115,17.115,0,0,1-4.24.495q-5.2,0-7.968-3.262a12.914,12.914,0,0,1-2.77-8.653,12.758,12.758,0,0,1,2.819-8.649Q420.642,257.777,425.888,257.776Zm-50.671,24.67a6.889,6.889,0,0,1-5.343-2.2,8.885,8.885,0,0,1-.049-11.2,7.037,7.037,0,0,1,5.442-2.126,11.72,11.72,0,0,1,5.492,1.385l.491-4.944a13.124,13.124,0,0,0-6.571-1.581,14.042,14.042,0,0,0-7.158,1.705,10.949,10.949,0,0,0-4.412,4.646,14.45,14.45,0,0,0-1.472,6.551,14.174,14.174,0,0,0,1.472,6.475,11.014,11.014,0,0,0,4.388,4.623,13.61,13.61,0,0,0,6.986,1.706,17.306,17.306,0,0,0,3.751-.4A12.537,12.537,0,0,0,381.346,286l-.54-5.19A11.012,11.012,0,0,1,375.216,282.445Zm25.524-19.132a11.057,11.057,0,0,0-5.809-1.434,11.764,11.764,0,0,0-6.423,1.706,11.193,11.193,0,0,0-4.119,4.573,14.039,14.039,0,0,0-1.421,6.328,14.224,14.224,0,0,0,1.5,6.55,11.291,11.291,0,0,0,4.51,4.7,14.238,14.238,0,0,0,7.281,1.755,18.748,18.748,0,0,0,4.535-.519,15.905,15.905,0,0,0,3.654-1.36l-.295-5.192a14.04,14.04,0,0,1-7.354,2.029,7.808,7.808,0,0,1-4.952-1.607,7.233,7.233,0,0,1-2.549-4.871h15.836a16.647,16.647,0,0,0,.393-3.362,12.094,12.094,0,0,0-1.2-5.438A9.211,9.211,0,0,0,400.74,263.314Zm-11.3,8.5a6.89,6.89,0,0,1,1.863-3.558,4.982,4.982,0,0,1,3.629-1.335,3.847,3.847,0,0,1,3.334,1.484,5.653,5.653,0,0,1,1.079,3.41Z" transform="translate(-243.264 -249.916)" fill="#040f39"/>
    <path id="Path_754" data-name="Path 754" d="M173.092,257.76l-3.753-3.785-5.612,5.658L161,256.888l-3.753,3.785,2.724,2.746,3.147,3.174.605.611,2.809-2.834Z" transform="translate(-157.25 -252.356)" fill="#040f39"/>
  </g>
  <g id="Group_332" data-name="Group 332" transform="translate(0 0)">
    <path id="Path_755" data-name="Path 755" d="M130.48,251.757a17.472,17.472,0,1,1,17.328-17.471,17.4,17.4,0,0,1-17.328,17.471m0-46.242a28.654,28.654,0,0,0-28.534,28.771c0,25.175,28.534,44.716,28.534,44.716s28.534-19.54,28.534-44.716a28.654,28.654,0,0,0-28.534-28.771" transform="translate(-101.946 -205.515)" fill="#040f39"/>
  </g>
</svg>
