<svg xmlns="http://www.w3.org/2000/svg" xmlns:xlink="http://www.w3.org/1999/xlink" width="152.774" height="42.422" viewBox="0 0 152.774 42.422">
  <defs>
    <clipPath id="clip-path">
      <path id="Path_791" data-name="Path 791" d="M132.911-366.96v-.13a1.246,1.246,0,0,1,1.4-1.328c.879,0,1.386.43,1.386,1.7a7.287,7.287,0,0,1-.113,1.308l1.758.113a11.415,11.415,0,0,0,.13-1.629c0-1.925-.953-3.274-3.2-3.274a3.242,3.242,0,0,0-3.517,3.237v.15c0,1.683,1.236,3.161,2.658,4.526,1.663,1.609,2.131,2.245,2.131,3.254v.244a1.325,1.325,0,0,1-1.457,1.478c-.843,0-1.5-.543-1.5-1.722a6.146,6.146,0,0,1,.148-1.382l-1.758-.113a9.995,9.995,0,0,0-.167,1.589c0,2.244,1.179,3.423,3.31,3.423a3.343,3.343,0,0,0,3.575-3.44v-.167c0-1.441-.58-2.641-2.995-5.052-1.345-1.347-1.795-1.909-1.795-2.788ZM136-378.514c0,1.067-.376,1.8-1.365,1.8-1.03,0-1.386-.766-1.386-1.664v-7.745c0-1.046.393-1.719,1.329-1.719,1.009,0,1.382.394,1.382,1.87a4.591,4.591,0,0,1-.13,1.31l1.8.132a9.58,9.58,0,0,0,.149-1.648c0-2.354-1.215-3.5-3.16-3.5-2.02,0-3.518,1.009-3.518,3.741v7.24c0,2.675,1.123,3.7,3.087,3.7a2.823,2.823,0,0,0,2.432-1.365h.074l.638,1.141h.821v-6.734H136ZM116.47-393.868a15.377,15.377,0,0,0-11.731-1.546,15.474,15.474,0,0,0-2.655.988,15.332,15.332,0,0,0-6.626-1.514A15.477,15.477,0,0,0,80-380.48a15.447,15.447,0,0,0,6.709,12.729,15.332,15.332,0,0,0,2.005,6.5,15.462,15.462,0,0,0,13.412,7.726,15.353,15.353,0,0,0,7.7-2.07,15.346,15.346,0,0,0,7.2-9.385,15.989,15.989,0,0,0,.477-2.807,15.319,15.319,0,0,0,4.617-4.967,15.473,15.473,0,0,0-5.656-21.116Zm-14.335,2.112a13.154,13.154,0,0,1,6.181,8.647,15.446,15.446,0,0,0-12.366-.045,13.052,13.052,0,0,1,1.43-3.887,12.983,12.983,0,0,1,4.755-4.716Zm6.439,11.384a13.118,13.118,0,0,1-6.479,11.192,13.03,13.03,0,0,1-6.028-7.907,13.19,13.19,0,0,1-.4-3.32,13.111,13.111,0,0,1,12.907.036Zm-21.814,9.686a13.074,13.074,0,0,1-4.422-9.794A13.135,13.135,0,0,1,95.458-393.6a13.033,13.033,0,0,1,4.124.672,15.375,15.375,0,0,0-4.229,4.72,15.372,15.372,0,0,0-2.012,6.51,15.426,15.426,0,0,0-6.581,11.012Zm6.63-8.107a15.828,15.828,0,0,0,.418,2.314,15.368,15.368,0,0,0,5.775,8.447,13.1,13.1,0,0,1-4.124.672A13.006,13.006,0,0,1,89-369.078a13.162,13.162,0,0,1,4.393-9.716Zm21.383,13.209a13.027,13.027,0,0,1-6.114,7.968,13.137,13.137,0,0,1-17.922-4.8,13.045,13.045,0,0,1-1.478-3.913,15.311,15.311,0,0,0,6.2,1.31,15.37,15.37,0,0,0,6.658-1.527,15.339,15.339,0,0,0,6.6,1.524,15.534,15.534,0,0,0,6.182-1.3c-.051.248-.057.5-.123.744Zm-10.185-2.448a15.455,15.455,0,0,0,6.231-10.741,13.132,13.132,0,0,1,2.644,3.235,13.025,13.025,0,0,1,1.7,6.476,13.145,13.145,0,0,1-10.58,1.03Zm15.515-5.888a13.036,13.036,0,0,1-2.643,3.232,15.41,15.41,0,0,0-1.972-6.019,15.314,15.314,0,0,0-4.631-4.986,15.432,15.432,0,0,0-6.216-11.2c.241-.078.46-.2.7-.265a13.045,13.045,0,0,1,9.957,1.312,13.132,13.132,0,0,1,4.8,17.921Zm25.916-3.114h-3.61v-4.7H145.5v-1.816h-3.087v-4.077h3.573v-1.816h-5.725v14.218h5.762ZM188.142-375a3.3,3.3,0,0,0,3.555-3.647v-7.314c0-2.751-1.626-3.724-3.555-3.724s-3.61,1.009-3.61,3.724v7.314a3.328,3.328,0,0,0,3.61,3.647Zm-1.459-11.242a1.393,1.393,0,0,1,1.441-1.592,1.413,1.413,0,0,1,1.4,1.592v7.837c0,.99-.523,1.61-1.386,1.61a1.447,1.447,0,0,1-1.459-1.63ZM143.226-370.2c-1.926,0-3.611,1.011-3.611,3.724v7.314a3.328,3.328,0,0,0,3.611,3.647,3.3,3.3,0,0,0,3.554-3.647v-7.314c0-2.751-1.626-3.724-3.554-3.724Zm1.385,11.281c0,.992-.526,1.609-1.385,1.609a1.445,1.445,0,0,1-1.459-1.629v-7.817a1.393,1.393,0,0,1,1.442-1.592,1.413,1.413,0,0,1,1.4,1.592Zm57.439-11.037-2.507,14.218h1.945l.32-2.115h2.675l.353,2.115h2.171l-2.525-14.218Zm.017,10.288.974-7.388h.092l1.069,7.388Zm-1.672-17.7c0-.337-.02-.917-.02-1.329-.037-1.908-.41-2.938-1.852-3.274v-.094c1.553-.449,2.171-1.721,2.171-3.741,0-2.507-1.4-3.63-3.33-3.63h-3.538v14.218h2.152v-5.838h.787c1.123,0,1.348.73,1.4,2.509.02.879.04,1.571.077,2.6a2.142,2.142,0,0,0,.13.729h2.282a5.655,5.655,0,0,1-.261-2.15Zm-3.48-5.409h-.937v-4.843h.972c.993,0,1.593.5,1.593,2.225,0,2.058-.673,2.618-1.629,2.618Zm-1.3,18.96h-3.028v-6.135h-2.152v14.218h2.152V-362h3.028v6.268h2.152v-14.218h-2.152Zm18.179,1.909h-.072l-2.865-8.044h-2.075v14.218H210.7V-364.6h.075l3.124,8.866h1.816v-14.218H213.79Zm15.372,4.359v-4.7h3.089v-1.814h-3.089v-4.078h3.575v-1.814h-5.726v14.218h5.763v-1.816Zm-6.411-1.478c0,1.066-.374,1.8-1.366,1.8-1.029,0-1.385-.77-1.385-1.665v-7.746c0-1.048.393-1.72,1.328-1.72,1.009,0,1.386.393,1.386,1.871a4.7,4.7,0,0,1-.13,1.31l1.795.129a9.824,9.824,0,0,0,.15-1.644c0-2.359-1.216-3.5-3.161-3.5-2.021,0-3.517,1.011-3.517,3.741v7.24c0,2.675,1.121,3.7,3.084,3.7a2.816,2.816,0,0,0,2.431-1.365h.076l.636,1.142h.822v-6.734h-2.15Zm-34.331-6.116a12.384,12.384,0,0,0,.113-1.758c0-2.431-1.329-3.294-3.2-3.294-1.891,0-3.444,1.049-3.444,3.854v7.091c0,2.8,1.515,3.759,3.424,3.759,1.851,0,3.218-.842,3.218-3.293a9.592,9.592,0,0,0-.13-1.776l-1.759.15a6.056,6.056,0,0,1,.111,1.291c0,1.364-.447,1.813-1.289,1.813-.993,0-1.423-.617-1.423-1.553v-7.989a1.4,1.4,0,0,1,1.423-1.532c.859,0,1.272.412,1.272,1.834a6.833,6.833,0,0,1-.113,1.27Zm-24.59-4.808-2.507,14.218h1.945l.32-2.115h2.675l.356,2.115h2.169l-2.524-14.218Zm.017,10.288.972-7.388h.1l1.066,7.388Zm-3.183-24.2,2.322-5.576H160.87l-3.011,7.671H157.8v-7.671h-2.152v14.218H157.8v-3.536l1.515-2.712,1.515,6.248h2.245Zm-3.253,28.127h2.152v-14.218H157.41Zm-2.009-9.41a12.8,12.8,0,0,0,.111-1.758c0-2.431-1.327-3.294-3.2-3.294-1.889,0-3.444,1.049-3.444,3.854v7.091c0,2.8,1.515,3.759,3.424,3.759,1.851,0,3.218-.842,3.218-3.293a9.368,9.368,0,0,0-.13-1.776l-1.759.15a5.863,5.863,0,0,1,.113,1.291c0,1.364-.449,1.813-1.291,1.813-.991,0-1.423-.617-1.423-1.553v-7.989a1.4,1.4,0,0,1,1.423-1.532c.862,0,1.272.412,1.272,1.834a6.832,6.832,0,0,1-.113,1.27Zm17.308-4.808h-2.152v14.218h5.762v-1.816h-3.61Zm9.6-13.086h-3.084v-4.583h3.571v-1.816H177.07v14.218h2.152v-5.987h3.084Zm-28.591,6.006h-3.61v-4.7h3.087v-1.816h-3.087v-4.077h3.573v-1.816h-5.725v14.218h5.762Zm17.556-1.572c0-1.44-.58-2.638-2.991-5.05-1.349-1.348-1.8-1.908-1.8-2.787v-.133a1.247,1.247,0,0,1,1.4-1.327c.883,0,1.386.431,1.386,1.7a7.371,7.371,0,0,1-.113,1.312l1.759.111a10.978,10.978,0,0,0,.133-1.626c0-1.929-.955-3.274-3.2-3.274a3.242,3.242,0,0,0-3.518,3.237v.149c0,1.683,1.236,3.162,2.658,4.527,1.665,1.609,2.132,2.244,2.132,3.253v.244a1.328,1.328,0,0,1-1.459,1.48c-.842,0-1.5-.544-1.5-1.723a6.135,6.135,0,0,1,.15-1.382l-1.759-.112a9.973,9.973,0,0,0-.17,1.588c0,2.245,1.179,3.424,3.311,3.424a3.344,3.344,0,0,0,3.573-3.443Z" transform="translate(-80 395.946)" fill="#ff7aa7" clip-rule="evenodd"/>
    </clipPath>
    <clipPath id="clip-path-2">
      <path id="Path_790" data-name="Path 790" d="M0,25.194H1166.452V-781H0Z" transform="translate(0 781)" fill="#ff7aa7"/>
    </clipPath>
  </defs>
  <g id="Group_398" data-name="Group 398" clip-path="url(#clip-path)">
    <g id="Group_397" data-name="Group 397" transform="translate(-82.581 -397.476)" clip-path="url(#clip-path-2)">
      <path id="Path_789" data-name="Path 789" d="M75-400.946H238.1V-348.2H75Z" transform="translate(2.419 793.26)" fill="#ff7aa7"/>
    </g>
  </g>
</svg>
