<svg id="Group_4957" data-name="Group 4957" xmlns="http://www.w3.org/2000/svg" xmlns:xlink="http://www.w3.org/1999/xlink" width="192" height="24.566" viewBox="0 0 192 24.566">
  <defs>
    <clipPath id="clip-path">
      <rect id="Rectangle_4958" data-name="Rectangle 4958" width="192" height="24.566" transform="translate(0 0)" fill="#040f39"/>
    </clipPath>
  </defs>
  <g id="Group_4957-2" data-name="Group 4957" transform="translate(0 0)" clip-path="url(#clip-path)">
    <path id="Path_5155" data-name="Path 5155" d="M4.483,11.371a2.334,2.334,0,0,0-.709-.526,2.028,2.028,0,0,0-.9-.2H0V17.31H1.831V15.263H2.92a2.084,2.084,0,0,0,.9-.192,2.132,2.132,0,0,0,.695-.517,2.444,2.444,0,0,0,.606-1.6,2.224,2.224,0,0,0-.169-.841,2.448,2.448,0,0,0-.465-.741M3.113,13.512a.43.43,0,0,1-.315.155H1.831V12.24h.92a.512.512,0,0,1,.338.15.737.737,0,0,1,.169.563.819.819,0,0,1-.146.559m38,1.15h2.422V13.179H41.115V12.24h2.836v-1.6H39.284V17.31h4.751v-1.6h-2.92ZM20.6,15.216l-.479-1.39,1.1-3.183H19.537L18.945,12.7l-.582-2.056H16.682l1.08,3.183-.46,1.39-1.446-4.573H13.875l2.61,6.666h1.521l.939-2.385.948,2.385h1.521l2.61-6.666H22.034Zm6.6-.554h2.423V13.179H27.2V12.24h2.836v-1.6H25.371V17.31h4.751v-1.6H27.2Zm9.865-.624a2.371,2.371,0,0,0,.254-1.085,2.224,2.224,0,0,0-.169-.841,2.452,2.452,0,0,0-.465-.741,2.332,2.332,0,0,0-.709-.526,2.029,2.029,0,0,0-.9-.2H32.016V17.31h1.831V15.263h.685l1.174,2.046h2.066l-1.408-2.45a2.209,2.209,0,0,0,.7-.822m-1.751-.559a.406.406,0,0,1-.315.188H33.847V12.24h1.108a.473.473,0,0,1,.338.183.756.756,0,0,1,.169.531.841.841,0,0,1-.145.526M12.243,11.667a3.376,3.376,0,0,0-1.061-.77,3.207,3.207,0,0,0-1.38-.291,3.329,3.329,0,0,0-1.366.277,3.457,3.457,0,0,0-1.08.742A3.352,3.352,0,0,0,6.647,12.7a3.273,3.273,0,0,0-.254,1.268,3.365,3.365,0,0,0,.244,1.259,3.464,3.464,0,0,0,.685,1.084,3.41,3.41,0,0,0,1.061.765,3.21,3.21,0,0,0,1.38.291,3.285,3.285,0,0,0,1.366-.281,3.464,3.464,0,0,0,1.075-.747,3.415,3.415,0,0,0,.7-1.07A3.236,3.236,0,0,0,13.163,14a3.389,3.389,0,0,0-.24-1.249,3.465,3.465,0,0,0-.681-1.089m-1.028,2.948a1.735,1.735,0,0,1-.273.568,1.377,1.377,0,0,1-.474.4,1.606,1.606,0,0,1-1.366,0,1.419,1.419,0,0,1-.474-.395,1.7,1.7,0,0,1-.281-.559,2.266,2.266,0,0,1-.094-.653,2.34,2.34,0,0,1,.089-.643,1.693,1.693,0,0,1,.277-.564,1.407,1.407,0,0,1,.474-.4,1.487,1.487,0,0,1,1.831.38,1.611,1.611,0,0,1,.286.554,2.268,2.268,0,0,1,.094.653,2.4,2.4,0,0,1-.089.648M146,8.714a7.3,7.3,0,0,0-3.81-.933,7.761,7.761,0,0,0-4.212,1.11,7.3,7.3,0,0,0-2.7,2.974,9.066,9.066,0,0,0-.933,4.116,9.192,9.192,0,0,0,.981,4.26,7.365,7.365,0,0,0,2.958,3.055,9.4,9.4,0,0,0,4.775,1.142,12.386,12.386,0,0,0,2.974-.338,10.451,10.451,0,0,0,2.4-.884l-.193-3.376a9.274,9.274,0,0,1-4.823,1.318,5.147,5.147,0,0,1-3.247-1.045,4.7,4.7,0,0,1-1.672-3.167h10.386a10.743,10.743,0,0,0,.257-2.187,7.8,7.8,0,0,0-.788-3.536A6.015,6.015,0,0,0,146,8.714m-7.411,5.53a4.466,4.466,0,0,1,1.222-2.315,3.283,3.283,0,0,1,2.379-.868,2.531,2.531,0,0,1,2.186.965,3.653,3.653,0,0,1,.707,2.218Zm23.9-9.132a10.679,10.679,0,0,1,2.749.337,18.223,18.223,0,0,1,2.653.949l.45-3.923a12.58,12.58,0,0,0-5.82-1.318A12.28,12.28,0,0,0,156.5,2.62a10.5,10.5,0,0,0-4.148,4.116,12.263,12.263,0,0,0-1.5,6.126A12.663,12.663,0,0,0,152.3,19.02a10.129,10.129,0,0,0,4.068,4.1,12.274,12.274,0,0,0,6.029,1.446,13.782,13.782,0,0,0,5.949-1.318l-.45-3.923a16.942,16.942,0,0,1-2.717.964,11.277,11.277,0,0,1-2.781.322,6.5,6.5,0,0,1-5.225-2.122,8.356,8.356,0,0,1-1.817-5.627A8.262,8.262,0,0,1,157.2,7.235a6.639,6.639,0,0,1,5.29-2.122M129.261,21.158a4.533,4.533,0,0,1-3.5-1.431,5.128,5.128,0,0,1-1.318-3.617,5.167,5.167,0,0,1,1.286-3.666,4.636,4.636,0,0,1,3.569-1.382,7.738,7.738,0,0,1,3.6.9l.321-3.215a8.661,8.661,0,0,0-4.309-1.029,9.275,9.275,0,0,0-4.695,1.109,7.147,7.147,0,0,0-2.894,3.023,9.328,9.328,0,0,0-.965,4.26,9.154,9.154,0,0,0,.965,4.212,7.185,7.185,0,0,0,2.878,3.007,8.98,8.98,0,0,0,4.582,1.11,11.5,11.5,0,0,0,2.46-.257,8.305,8.305,0,0,0,2.042-.708l-.354-3.376a7.269,7.269,0,0,1-3.666,1.061m61.468-.112a.823.823,0,0,1-.514-.644,7.812,7.812,0,0,1-.145-1.817V0h-3.987V20.225a4.438,4.438,0,0,0,1.029,3.039,3.886,3.886,0,0,0,3.087,1.174h1.447l.354-3.28a4.925,4.925,0,0,1-1.27-.112m-7.652-.033a.93.93,0,0,1-.386-.675,9.487,9.487,0,0,1-.113-1.753V14.245q0-3.375-1.5-4.92a5.747,5.747,0,0,0-4.325-1.544A13.344,13.344,0,0,0,170.907,9.2l.354,3.247a14.553,14.553,0,0,1,2.331-.932,7.507,7.507,0,0,1,2.074-.289,3.151,3.151,0,0,1,2.171.611,2.85,2.85,0,0,1,.723,2.026,18.355,18.355,0,0,0-3.955.595,8.915,8.915,0,0,0-3.569,1.8,4.171,4.171,0,0,0-1.511,3.36,4.7,4.7,0,0,0,1.334,3.521,4.575,4.575,0,0,0,3.328,1.3,7.974,7.974,0,0,0,2.813-.5,5.159,5.159,0,0,0,2.106-1.366,3.451,3.451,0,0,0,1.383,1.366,4.524,4.524,0,0,0,2.219.5h1.447l.354-3.28h-.514a2.086,2.086,0,0,1-.917-.145m-4.486-.788a4.2,4.2,0,0,1-1.35.853,3.8,3.8,0,0,1-1.383.305,2.393,2.393,0,0,1-1.64-.467,1.88,1.88,0,0,1-.514-1.463,2.269,2.269,0,0,1,1.479-2.058,8.494,8.494,0,0,1,3.408-.836Zm-60.15.788a.93.93,0,0,1-.386-.675,9.467,9.467,0,0,1-.113-1.753V14.245q0-3.375-1.5-4.92a5.747,5.747,0,0,0-4.325-1.544A13.345,13.345,0,0,0,106.272,9.2l.354,3.247a14.554,14.554,0,0,1,2.331-.932,7.509,7.509,0,0,1,2.074-.289,3.151,3.151,0,0,1,2.17.611,2.85,2.85,0,0,1,.723,2.026,18.355,18.355,0,0,0-3.955.595,8.915,8.915,0,0,0-3.569,1.8,4.171,4.171,0,0,0-1.511,3.36,4.7,4.7,0,0,0,1.334,3.521,4.575,4.575,0,0,0,3.328,1.3,7.973,7.973,0,0,0,2.813-.5,5.159,5.159,0,0,0,2.106-1.366,3.453,3.453,0,0,0,1.383,1.366,4.524,4.524,0,0,0,2.219.5h1.447l.354-3.28h-.514a2.086,2.086,0,0,1-.917-.145m-4.486-.788a4.2,4.2,0,0,1-1.35.853,3.807,3.807,0,0,1-1.383.305,2.394,2.394,0,0,1-1.64-.467,1.88,1.88,0,0,1-.514-1.463,2.269,2.269,0,0,1,1.479-2.058,8.494,8.494,0,0,1,3.408-.836ZM61.074,13.892a1.507,1.507,0,0,0,.718-.643,1.81,1.81,0,0,0,.239-.9,1.86,1.86,0,0,0-.108-.624,1.778,1.778,0,0,0-.305-.544,1.563,1.563,0,0,0-.479-.39,1.321,1.321,0,0,0-.629-.15H56.642V17.31h3.277a4.164,4.164,0,0,0,.925-.1,2.434,2.434,0,0,0,.765-.305,1.456,1.456,0,0,0,.7-1.305,1.623,1.623,0,0,0-1.239-1.708m-2.6-1.69h1.3a.45.45,0,0,1,.31.118.5.5,0,0,1,.131.389.465.465,0,0,1-.155.414.605.605,0,0,1-.343.1H58.474ZM60.3,15.629a.542.542,0,0,1-.38.141H58.474V14.652h1.511a.414.414,0,0,1,.338.165.634.634,0,0,1,.131.409.516.516,0,0,1-.155.4M51,11.619a3.025,3.025,0,0,0-1.052-.713,3.758,3.758,0,0,0-1.455-.263H45.929V17.31h2.563a3.808,3.808,0,0,0,1.38-.239,3.047,3.047,0,0,0,1.061-.676,2.98,2.98,0,0,0,.681-1.051,3.76,3.76,0,0,0,.24-1.376,3.81,3.81,0,0,0-.216-1.291A3,3,0,0,0,51,11.619m-1.1,3.043a1.614,1.614,0,0,1-.291.554,1.336,1.336,0,0,1-.474.366,1.5,1.5,0,0,1-.638.131H47.76V12.24h.732a1.517,1.517,0,0,1,.629.126,1.337,1.337,0,0,1,.474.352,1.574,1.574,0,0,1,.3.545,2.28,2.28,0,0,1,.1.7,2.349,2.349,0,0,1-.1.695m16.383-1.136-1.193-2.883H63.105l2.263,4.441V17.31H67.19V15.1l2.3-4.46H67.5ZM102.037,20.4a7.813,7.813,0,0,1-.145-1.817V0H97.906V20.225a4.437,4.437,0,0,0,1.029,3.039,3.886,3.886,0,0,0,3.087,1.174h1.447l.354-3.28a4.924,4.924,0,0,1-1.27-.112.824.824,0,0,1-.514-.644M88.156,1.608H80.15V24.116h4.116V16.3h3.987a8.486,8.486,0,0,0,5.884-1.833q2.026-1.832,2.026-5.594,0-7.267-8.007-7.268M90.938,11.9a4.536,4.536,0,0,1-3.167.965h-3.5V5.049h3.408A4.762,4.762,0,0,1,90.922,6a3.753,3.753,0,0,1,1.061,2.943A3.838,3.838,0,0,1,90.938,11.9" transform="translate(0 0)" fill="#040f39"/>
  </g>
</svg>
