<svg xmlns="http://www.w3.org/2000/svg" xmlns:xlink="http://www.w3.org/1999/xlink" width="57" height="59" viewBox="0 0 57 59">
  <defs>
    <clipPath id="clip-path">
      <rect id="Rectangle_4905" data-name="Rectangle 4905" width="57" height="59" transform="translate(0.413 -0.467)" fill="#ff7aa7"/>
    </clipPath>
  </defs>
  <g id="Group_4955" data-name="Group 4955" transform="translate(-0.413 0.467)">
    <g id="Group_4809" data-name="Group 4809" transform="translate(0 0)" clip-path="url(#clip-path)">
      <path id="Path_5135" data-name="Path 5135" d="M20.541,16.557c-.963,0-1.164.851-1.164,2.1v4.925c0,1.254.2,2.1,1.164,2.1s1.164-.851,1.164-2.1V18.661c0-1.254-.2-2.1-1.164-2.1M10.32,32.085h-.313v3.761h.313c1.321,0,1.836-.425,1.836-1.858,0-1.276-.514-1.9-1.836-1.9M55.083,0H2.535A2.542,2.542,0,0,0,0,2.535V55.083a2.542,2.542,0,0,0,2.535,2.535H55.083a2.543,2.543,0,0,0,2.535-2.535V2.535A2.542,2.542,0,0,0,55.083,0M38.137,14.072h3.291v14.1H38.137Zm-12.346,0h4.231l1.5,7.164h.09l1.343-7.164H37.1v14.1H34.053V20.138h-.09l-1.545,8.037h-2.06l-1.59-8.037h-.09v8.037H25.791ZM6.536,20.162c0-4.052,1.276-6.268,4.568-6.268,3.2,0,4.253,2.306,4.253,5.6v.65h-3.2V18.617c0-1.254-.157-2.06-1.12-2.06s-1.12.805-1.12,2.06v5.014c0,1.254.157,2.06,1.12,2.06s1.12-.805,1.12-2.06V22.109h3.2v.65c0,3.291-1.052,5.6-4.253,5.6-3.291,0-4.568-2.216-4.568-6.268Zm5.642,23.387a14.131,14.131,0,0,1-.313-3.067c-.068-1.343-.4-2.037-1.433-2.037h-.425v5.1H6.759v-14.1h4.052c3.157,0,4.568,1.656,4.568,4.164,0,2.216-1.008,3.314-2.441,3.559,1.477.335,1.971,1.387,2.082,3.157.112,1.858.09,2.575.4,3.224Zm11.093-11.4H19.353v2.888h2.91v2.686h-2.91V40.84h3.918v2.709H16.128v-14.1h7.142Zm-2.73-3.8c-3.291,0-4.568-2.306-4.568-6.358V20.251c0-4.052,1.276-6.358,4.568-6.358s4.568,2.306,4.568,6.358V22c0,4.052-1.276,6.358-4.568,6.358M31.133,43.549h-7.1v-14.1h3.291v11.4h3.806Zm3.906,0H31.749v-14.1H35.04Zm8.156-11.4H39.278v2.888h2.91v2.686h-2.91V40.84H43.2v2.709H36.054v-14.1H43.2Zm7.639,0H47.253v3.268h2.619v2.664H47.253v5.463H43.962v-14.1h6.873Zm.221-12.014h-3.2V18.617c0-1.254-.157-2.06-1.12-2.06s-1.12.805-1.12,2.06v5.014c0,1.254.157,2.06,1.12,2.06s1.12-.805,1.12-2.06V22.109h3.2v.65c0,3.291-1.052,5.6-4.253,5.6-3.291,0-4.568-2.216-4.568-6.268V20.162c0-4.052,1.276-6.268,4.568-6.268,3.2,0,4.253,2.306,4.253,5.6Z" transform="translate(-0.081 0.223)" fill="#ff7aa7"/>
    </g>
  </g>
</svg>
