<svg xmlns="http://www.w3.org/2000/svg" width="40" height="40" viewBox="0 0 40 40">
  <path id="Path_5162" data-name="Path 5162" d="M20,9.73A10.27,10.27,0,1,0,30.27,20,10.27,10.27,0,0,0,20,9.73m0,16.937A6.667,6.667,0,1,1,26.667,20,6.667,6.667,0,0,1,20,26.667M30.676,6.924a2.4,2.4,0,1,0,2.4,2.4,2.4,2.4,0,0,0-2.4-2.4m9.2,4.83A14.68,14.68,0,0,0,38.95,6.9a9.8,9.8,0,0,0-2.307-3.542A9.8,9.8,0,0,0,33.1,1.05,14.678,14.678,0,0,0,28.246.12C26.113.023,25.432,0,20,0s-6.113.023-8.246.12A14.678,14.678,0,0,0,6.9,1.05,9.8,9.8,0,0,0,3.357,3.357,9.8,9.8,0,0,0,1.05,6.9a14.68,14.68,0,0,0-.93,4.855C.023,13.887,0,14.568,0,20s.023,6.113.12,8.246A14.679,14.679,0,0,0,1.05,33.1a9.8,9.8,0,0,0,2.307,3.542A9.8,9.8,0,0,0,6.9,38.95a14.681,14.681,0,0,0,4.855.93c2.133.1,2.814.12,8.246.12s6.113-.023,8.246-.12a14.68,14.68,0,0,0,4.855-.93A10.227,10.227,0,0,0,38.95,33.1a14.679,14.679,0,0,0,.93-4.855c.1-2.133.12-2.814.12-8.246s-.023-6.113-.12-8.246m-3.6,16.328a11.067,11.067,0,0,1-.689,3.714,6.624,6.624,0,0,1-3.8,3.8,11.067,11.067,0,0,1-3.714.689c-2.109.1-2.741.117-8.082.117s-5.973-.02-8.082-.117A11.066,11.066,0,0,1,8.2,35.591a6.2,6.2,0,0,1-2.3-1.5,6.2,6.2,0,0,1-1.5-2.3,11.066,11.066,0,0,1-.689-3.714C3.624,25.973,3.6,25.34,3.6,20s.02-5.973.117-8.082A11.067,11.067,0,0,1,4.409,8.2,6.2,6.2,0,0,1,5.9,5.9a6.2,6.2,0,0,1,2.3-1.5,11.067,11.067,0,0,1,3.714-.689C14.027,3.624,14.66,3.6,20,3.6s5.973.02,8.082.117a11.067,11.067,0,0,1,3.714.689,6.2,6.2,0,0,1,2.3,1.5,6.2,6.2,0,0,1,1.5,2.3,11.067,11.067,0,0,1,.689,3.714c.1,2.109.117,2.741.117,8.082s-.02,5.973-.117,8.082" transform="translate(0 0)" fill="#ff7aa7"/>
</svg>
