<svg xmlns="http://www.w3.org/2000/svg" width="45" height="36.571" viewBox="0 0 45 36.571">
  <path id="Path_5163" data-name="Path 5163" d="M45,4.329a18.455,18.455,0,0,1-5.3,1.454A9.261,9.261,0,0,0,43.757.675a18.487,18.487,0,0,1-5.863,2.24,9.241,9.241,0,0,0-15.732,8.421A26.21,26.21,0,0,1,3.133,1.69,9.242,9.242,0,0,0,5.99,14.016a9.2,9.2,0,0,1-4.182-1.155c0,.039,0,.077,0,.116A9.238,9.238,0,0,0,9.213,22.03a9.255,9.255,0,0,1-4.169.158A9.241,9.241,0,0,0,13.668,28.6,18.523,18.523,0,0,1,2.2,32.552,18.727,18.727,0,0,1,0,32.422a26.13,26.13,0,0,0,14.152,4.148C31.134,36.571,40.42,22.5,40.42,10.3q0-.6-.027-1.195A18.754,18.754,0,0,0,45,4.329" fill="#ff7aa7"/>
</svg>
