<?xml version="1.0" encoding="UTF-8" standalone="no"?>
<svg
   id="Layer_1"
   data-name="Layer 1"
   width="143.91"
   height="50.01"
   viewBox="0 0 143.91 50.01"
   version="1.1"
   xmlns="http://www.w3.org/2000/svg"
   xmlns:svg="http://www.w3.org/2000/svg">
  <defs
     id="defs1">
    <style
       id="style1">
      .cls-1 {
        fill: #ff7aa7;
        stroke-width: 0px;
      }
    </style>
  </defs>
  <path
     id="Path_5188"
     data-name="Path 5188"
     class="cls-1"
     d="m 108.23,28.72 c -1.48,-0.02 -2.92,0.52 -4.03,1.5 -0.47,0.37 -1.12,1.27 -2.05,1.27 -0.59,-0.09 -1.11,-0.42 -1.45,-0.9 h -1.11 v 12.7 h 4.28 V 31.73 c 0.68,-0.79 1.65,-1.26 2.69,-1.3 1.89,0 2.14,1.64 2.14,3.07 v 9.79 h 4.28 v -9.43 c 0.1,-1.4 -0.34,-2.79 -1.25,-3.88 -0.94,-0.89 -2.21,-1.35 -3.51,-1.27 m 17.58,12.11 c -1.44,1.05 -3.41,1.02 -4.82,-0.08 -1.06,-0.97 -1.58,-2.82 -1.58,-5.25 0,-3.64 1.2,-5.81 3.2,-5.81 1.81,0 2.11,1.98 2.73,3.88 l 2.57,-2.26 c -1.37,-1.69 -3.46,-2.63 -5.63,-2.53 -4.03,-0.08 -7.36,3.11 -7.44,7.14 0,0.17 0,0.33 0,0.5 0,4.26 2.81,7.23 6.82,7.23 1.87,0 3.66,-0.73 4.97,-2.05 0.78,-0.78 1.47,-1.64 2.07,-2.57 l -0.76,-0.44 c -0.57,0.87 -1.29,1.63 -2.13,2.25 m -95.68,1.12 c -0.38,0.03 -0.75,-0.09 -1.03,-0.35 -0.37,-0.5 -0.54,-1.12 -0.48,-1.73 v -9.73 c 0.43,0 0.85,0.13 1.22,0.35 0.71,0.5 1.4,1.04 2.06,1.62 h 0.41 l -0.03,-2.98 h -3.65 c -0.2,-2.19 -2.09,-3.83 -4.28,-3.72 v 3.66 l -1.68,0.02 v 1.07 h 1.68 v 9.58 c 0,2.55 1.31,3.89 4.09,3.89 1.03,0 2.03,-0.34 2.85,-0.97 0.76,-0.61 1.34,-1.43 1.67,-2.35 l -0.91,0.05 c 0,0 -0.64,1.59 -1.9,1.59 M 25.31,13.76 c -0.05,-0.49 -0.08,-0.98 -0.08,-1.48 0,-2.96 0.82,-5 2.25,-5.62 0.97,-0.4 2.09,-0.14 2.78,0.65 0.44,0.62 0.6,1.4 0.44,2.14 -0.04,0.35 -0.15,0.68 -0.32,0.99 -0.71,1.08 -1.81,1.82 -3.08,2.08 -0.79,0.18 -1.49,0.61 -2.01,1.23 m 7.2,4.53 c 0.52,-0.56 0.99,-1.17 1.4,-1.82 l -0.75,-0.44 c -0.87,1.39 -2.35,2.28 -3.99,2.39 -1.38,0.01 -2.62,-0.81 -3.17,-2.07 -0.34,-0.74 -0.38,-1.65 0.42,-1.91 0.69,-0.16 1.4,-0.23 2.12,-0.21 1.97,-0.05 4.43,-0.1 5.52,-2.19 C 34.57,11.07 34.63,9.91 34.19,8.9 33.66,7.78 32.75,6.88 31.62,6.36 29.97,5.55 28.09,5.34 26.3,5.77 c -3.43,0.79 -5.8,3.92 -5.64,7.43 0,4.26 2.81,7.23 6.82,7.23 1.9,0.02 3.71,-0.77 5,-2.16 m 16.77,4.92 v 0 20.1 h 4.31 V 27.5 c 0,-2.38 -1.93,-4.31 -4.31,-4.31 m -5.59,9.46 c -0.04,0.35 -0.15,0.68 -0.32,0.99 -0.71,1.08 -1.81,1.82 -3.08,2.08 -0.79,0.18 -1.49,0.61 -2.01,1.24 -0.05,-0.49 -0.08,-0.98 -0.08,-1.47 0,-2.96 0.82,-5 2.25,-5.62 0.97,-0.4 2.09,-0.14 2.78,0.65 0.44,0.62 0.6,1.4 0.44,2.14 m 0.94,-3.11 c -1.65,-0.81 -3.53,-1.02 -5.32,-0.59 -3.43,0.79 -5.81,3.92 -5.64,7.44 0,4.26 2.81,7.23 6.83,7.23 1.9,0.02 3.71,-0.77 5,-2.16 0.52,-0.56 0.99,-1.17 1.4,-1.82 L 46.1,39.21 c -0.87,1.39 -2.35,2.27 -3.99,2.38 -1.38,0.01 -2.62,-0.81 -3.17,-2.07 -0.34,-0.74 -0.38,-1.65 0.42,-1.91 0.69,-0.16 1.4,-0.23 2.12,-0.21 1.97,-0.05 4.43,-0.1 5.52,-2.19 0.53,-0.96 0.59,-2.12 0.15,-3.13 -0.53,-1.12 -1.44,-2.02 -2.56,-2.54 m 49.29,3.11 c -0.04,0.35 -0.15,0.68 -0.32,0.99 -0.71,1.08 -1.81,1.82 -3.07,2.08 -0.79,0.18 -1.49,0.61 -2.01,1.24 -0.05,-0.49 -0.08,-0.98 -0.08,-1.47 0,-2.96 0.82,-5 2.25,-5.62 0.97,-0.4 2.09,-0.14 2.78,0.65 0.44,0.62 0.6,1.4 0.44,2.14 m 0.92,-3.11 c -1.65,-0.81 -3.53,-1.02 -5.32,-0.59 -3.43,0.79 -5.81,3.92 -5.65,7.44 0,4.26 2.81,7.23 6.82,7.23 1.9,0.02 3.71,-0.77 5,-2.16 0.52,-0.56 0.99,-1.17 1.4,-1.82 l -0.75,-0.44 c -0.87,1.39 -2.35,2.28 -3.99,2.38 -1.38,0.01 -2.62,-0.81 -3.17,-2.07 -0.34,-0.74 -0.38,-1.65 0.43,-1.91 0.69,-0.16 1.4,-0.23 2.12,-0.21 1.97,-0.05 4.43,-0.1 5.52,-2.19 0.53,-0.96 0.59,-2.12 0.15,-3.13 -0.53,-1.12 -1.44,-2.02 -2.57,-2.54 m -19.16,8.44 c -2.07,-0.06 -2.29,-2.91 -2.29,-4.15 0,-2.74 0.78,-4.12 2.31,-4.12 1.53,0 2.36,1.55 2.36,4.2 0,2.65 -0.75,4.07 -2.38,4.07 m 3.83,-8.29 c -1.14,-0.61 -2.41,-0.92 -3.7,-0.89 -3.7,0 -6.39,2.14 -6.39,5.09 0,2.65 2.14,5.01 6.24,5.01 1.32,0 2.62,-0.3 3.79,-0.92 0.44,0.38 0.53,1.02 0.21,1.5 -1.09,1.15 -3.75,0.19 -6.32,0.37 -1.44,0 -2.79,0.71 -3.62,1.89 -1.51,2.27 -0.65,5.04 2.13,6.89 1.32,0.88 2.88,1.36 4.47,1.35 1.97,0.11 3.87,-0.69 5.18,-2.17 0.98,-1.31 1.51,-2.91 1.48,-4.54 h -3.57 c 0,0 1.34,2.81 0.43,4.4 -0.57,0.8 -1.52,1.25 -2.5,1.18 -0.95,0.04 -1.9,-0.21 -2.7,-0.73 -1.36,-0.72 -1.87,-2.41 -1.14,-3.77 0.07,-0.13 0.15,-0.26 0.24,-0.38 0.93,-1.4 2.44,-1.75 3.9,-2.08 1.23,-0.28 2.45,-0.62 3.03,-1.48 0.59,-0.96 0.41,-2.21 -0.43,-2.97 2.02,-1.56 2.39,-4.47 0.83,-6.49 -0.15,-0.19 -0.3,-0.36 -0.48,-0.53 0.91,-0.13 1.84,0.01 2.67,0.41 v -3.27 c -1.52,0 -2.93,0.78 -3.73,2.08 M 62.75,29.05 v 0 14.24 h 4.28 v -9.95 c 0,-2.36 -1.92,-4.28 -4.28,-4.28 m -6.91,-5.87 v 0 20.09 h 4.31 V 27.49 c 0,-2.38 -1.93,-4.31 -4.31,-4.31 m 9.05,0.01 c -1.19,0 -2.15,0.96 -2.15,2.15 0,1.19 0.96,2.15 2.15,2.15 1.19,0 2.15,-0.96 2.15,-2.15 0,-1.19 -0.96,-2.15 -2.15,-2.15 v 0 m -2.13,-5.9 c -0.65,0.89 -1.67,1.44 -2.77,1.49 -1.08,0 -3.59,-0.56 -3.59,-5.78 0,-3.83 1.53,-6.5 3.72,-6.5 1.31,0.11 2.38,1.08 2.63,2.36 V 8.9 c 0,0 0.01,8.38 0.01,8.38 z m 4.28,-13 C 67.05,1.92 65.13,0 62.76,0 c 0,0 0,0 0,0 v 6.44 c -0.93,-0.6 -2.02,-0.9 -3.13,-0.87 -1.99,0.02 -3.89,0.79 -5.34,2.15 -1.54,1.44 -2.42,3.45 -2.41,5.56 -0.1,3.85 2.93,7.05 6.78,7.16 1.56,0 3.04,-0.64 4.13,-1.76 l -0.04,1.42 h 4.34 c 0,0 -0.05,-3.88 -0.05,-4.5 z m 22.09,6.81 c 0.14,-0.88 0.65,-1.65 1.4,-2.13 0.38,-0.22 0.81,-0.34 1.25,-0.33 0.79,0 1.54,0.37 2.02,1 l 0.52,0.02 V 5.89 c 0,0 -0.58,-0.03 -1.26,-0.03 C 91.17,5.92 89.52,7.15 88.93,8.94 88.76,8.22 88.41,7.57 87.89,7.04 87.18,6.31 86.22,5.89 85.21,5.87 h -0.35 v 14.22 h 4.28 v -9 z m 10.8,1.19 c 0,-2.96 0.82,-5 2.25,-5.62 0.97,-0.4 2.09,-0.14 2.78,0.65 0.44,0.62 0.6,1.4 0.44,2.14 -0.04,0.35 -0.15,0.68 -0.32,0.99 -0.71,1.08 -1.81,1.82 -3.07,2.08 -0.79,0.18 -1.5,0.61 -2.01,1.23 -0.05,-0.49 -0.08,-0.98 -0.08,-1.48 m 2.26,8.16 c 1.9,0.02 3.71,-0.77 5,-2.16 0.52,-0.56 0.99,-1.17 1.4,-1.82 l -0.75,-0.44 c -0.87,1.39 -2.35,2.28 -3.99,2.38 -1.38,0.01 -2.62,-0.81 -3.17,-2.07 -0.34,-0.74 -0.38,-1.65 0.43,-1.91 0.69,-0.16 1.4,-0.23 2.12,-0.21 1.97,-0.05 4.43,-0.1 5.52,-2.19 0.53,-0.96 0.59,-2.12 0.15,-3.13 -0.53,-1.12 -1.44,-2.02 -2.57,-2.54 -1.65,-0.82 -3.53,-1.02 -5.32,-0.59 -3.43,0.79 -5.8,3.92 -5.64,7.43 0,4.26 2.81,7.23 6.82,7.23 m -85.4,8.3 c -1.48,-0.02 -2.92,0.52 -4.03,1.5 -0.47,0.37 -1.12,1.27 -2.05,1.27 -0.59,-0.09 -1.11,-0.42 -1.45,-0.9 h -1.1 v 12.7 h 4.28 V 31.73 c 0.68,-0.79 1.65,-1.26 2.69,-1.3 1.89,0 2.14,1.64 2.14,3.07 v 9.79 h 4.28 v -9.43 c 0.1,-1.4 -0.34,-2.79 -1.25,-3.88 -0.94,-0.89 -2.21,-1.35 -3.51,-1.27 m 117.95,8.24 c -0.05,-0.49 -0.08,-0.98 -0.08,-1.47 0,-2.96 0.82,-5 2.25,-5.62 0.97,-0.4 2.09,-0.14 2.78,0.65 0.44,0.62 0.6,1.4 0.44,2.14 -0.04,0.35 -0.15,0.68 -0.32,0.99 -0.71,1.08 -1.81,1.82 -3.07,2.08 -0.79,0.18 -1.49,0.61 -2.01,1.24 m 1.11,0.65 c 0.69,-0.16 1.4,-0.23 2.12,-0.21 1.97,-0.05 4.43,-0.1 5.52,-2.19 0.53,-0.96 0.59,-2.12 0.15,-3.13 -0.53,-1.12 -1.44,-2.02 -2.57,-2.54 -1.65,-0.81 -3.53,-1.02 -5.32,-0.59 -3.43,0.79 -5.8,3.92 -5.64,7.43 0,4.26 2.81,7.23 6.82,7.23 1.9,0.02 3.71,-0.77 5,-2.16 0.52,-0.56 0.99,-1.17 1.4,-1.82 l -0.75,-0.44 c -0.87,1.39 -2.35,2.28 -3.99,2.38 -1.38,0.01 -2.62,-0.81 -3.17,-2.07 -0.34,-0.74 -0.38,-1.65 0.43,-1.91 M 73.61,12.29 c 0,-2.96 0.82,-5 2.25,-5.62 0.97,-0.4 2.09,-0.14 2.78,0.65 0.44,0.62 0.6,1.4 0.44,2.14 -0.04,0.35 -0.15,0.68 -0.32,0.99 -0.71,1.08 -1.81,1.82 -3.07,2.08 -0.79,0.18 -1.49,0.61 -2.01,1.23 -0.05,-0.49 -0.08,-0.98 -0.08,-1.48 m 2.27,8.16 c 1.9,0.02 3.71,-0.77 5,-2.16 0.52,-0.56 0.99,-1.17 1.4,-1.82 l -0.75,-0.44 c -0.87,1.39 -2.35,2.28 -3.99,2.38 -1.38,0.01 -2.62,-0.81 -3.17,-2.07 -0.34,-0.74 -0.38,-1.65 0.43,-1.91 0.69,-0.16 1.4,-0.23 2.12,-0.21 1.97,-0.05 4.43,-0.1 5.52,-2.19 C 82.96,11.06 83.02,9.9 82.58,8.89 82.05,7.77 81.14,6.87 80.01,6.35 78.36,5.54 76.48,5.33 74.69,5.76 c -3.43,0.79 -5.8,3.92 -5.64,7.43 0,4.26 2.81,7.23 6.82,7.23 M 119.04,6.5 c 1.31,0.11 2.38,1.07 2.63,2.36 V 8.9 c 0,0 0.01,8.38 0.01,8.38 -0.65,0.89 -1.67,1.44 -2.77,1.49 -1.08,0 -3.59,-0.56 -3.59,-5.78 0,-3.83 1.53,-6.5 3.72,-6.5 m -1.46,13.94 c 1.56,0 3.04,-0.64 4.13,-1.76 l -0.04,1.42 h 4.34 c 0,0 -0.05,-3.88 -0.05,-4.5 V 4.28 C 125.96,1.92 124.04,0 121.68,0 v 6.44 c -0.93,-0.6 -2.02,-0.9 -3.13,-0.87 -1.99,0.02 -3.89,0.79 -5.34,2.15 -1.54,1.44 -2.42,3.45 -2.41,5.56 -0.1,3.85 2.93,7.05 6.78,7.16 M 1.07,24.2 v 0 19.09 H 5.66 V 28.8 c 0,-2.54 -2.05,-4.59 -4.59,-4.59 v 0 M 40.81,8.53 c 0.68,-0.79 1.65,-1.26 2.69,-1.3 1.89,0 2.13,1.64 2.13,3.07 v 9.79 h 4.28 V 10.66 C 50.01,9.26 49.57,7.87 48.66,6.78 47.72,5.89 46.45,5.43 45.15,5.51 43.67,5.49 42.23,6.03 41.12,7.01 40.65,7.38 40,8.28 39.07,8.28 38.48,8.19 37.96,7.86 37.61,7.38 H 36.5 v 12.7 h 4.28 V 8.51 Z M 10.7,20.43 c 1.98,0.09 3.94,-0.29 5.75,-1.1 l 0.6,0.77 h 0.85 v -8.58 h 1.07 v -0.99 h -7.94 v 0.99 h 3.01 v 4.63 c -0.02,1.79 -1.45,3.24 -3.23,3.29 -3.56,0 -5.86,-3.5 -5.86,-8.92 0,-3.31 0.68,-8.87 5.24,-8.87 1.6,0 2.3,1.19 2.78,2.36 0.49,1.24 1.9,1.85 3.15,1.36 0.25,-0.1 0.49,-0.24 0.69,-0.42 C 17.42,4.44 17.93,3.97 17.93,3.97 15.97,1.88 13.22,0.69 10.35,0.7 4.16,0.7 0,4.72 0,10.69 c 0,5.97 4,9.73 10.7,9.73"
     style="display:inline;fill:#ffbcd3;fill-opacity:1" />
</svg>
