<?xml version="1.0" encoding="UTF-8"?>
<svg id="Layer_1" data-name="Layer 1" xmlns="http://www.w3.org/2000/svg" width="143.91" height="50.01" viewBox="0 0 143.91 50.01">
  <defs>
    <style>
      .cls-1 {
        fill: #ff7aa7;
        stroke-width: 0px;
      }
    </style>
  </defs>
  <path id="Path_5188" data-name="Path 5188" class="cls-1" d="M108.23,28.72c-1.48-.02-2.92.52-4.03,1.5-.47.37-1.12,1.27-2.05,1.27-.59-.09-1.11-.42-1.45-.9h-1.11v12.7h4.28v-11.56c.68-.79,1.65-1.26,2.69-1.3,1.89,0,2.14,1.64,2.14,3.07v9.79h4.28v-9.43c.1-1.4-.34-2.79-1.25-3.88-.94-.89-2.21-1.35-3.51-1.27M125.8,40.82c-1.44,1.05-3.41,1.02-4.82-.08-1.06-.97-1.58-2.82-1.58-5.25,0-3.64,1.2-5.81,3.2-5.81,1.81,0,2.11,1.98,2.73,3.88l2.57-2.26c-1.37-1.69-3.46-2.63-5.63-2.53-4.03-.08-7.36,3.11-7.44,7.14,0,.17,0,.33,0,.5,0,4.26,2.81,7.23,6.82,7.23,1.87,0,3.66-.73,4.97-2.05.78-.78,1.47-1.64,2.07-2.57l-.76-.44c-.57.87-1.29,1.63-2.13,2.25M30.12,41.95c-.38.03-.75-.09-1.03-.35-.37-.5-.54-1.12-.48-1.73v-9.73c.43,0,.85.13,1.22.35.71.5,1.4,1.04,2.06,1.62h.41l-.03-2.98h-3.65c-.2-2.19-2.09-3.83-4.28-3.72v3.66l-1.68.02v1.07h1.68v9.58c0,2.55,1.31,3.89,4.09,3.89,1.03,0,2.03-.34,2.85-.97.76-.61,1.34-1.43,1.67-2.35l-.91.05s-.64,1.59-1.9,1.59M25.31,13.76c-.05-.49-.08-.98-.08-1.48,0-2.96.82-5,2.25-5.62.97-.4,2.09-.14,2.78.65.44.62.6,1.4.44,2.14-.04.35-.15.68-.32.99-.71,1.08-1.81,1.82-3.08,2.08-.79.18-1.49.61-2.01,1.23M32.49,18.28c.52-.56.99-1.17,1.4-1.82l-.75-.44c-.87,1.39-2.35,2.28-3.99,2.39-1.38.01-2.62-.81-3.17-2.07-.34-.74-.38-1.65.42-1.91.69-.16,1.4-.23,2.12-.21,1.97-.05,4.43-.1,5.52-2.19.53-.96.59-2.12.15-3.13-.53-1.12-1.44-2.02-2.57-2.54-1.65-.81-3.53-1.02-5.32-.59-3.43.79-5.8,3.92-5.64,7.43,0,4.26,2.81,7.23,6.82,7.23,1.9.02,3.71-.77,5-2.16M49.25,23.19h0v20.1h4.31v-15.79c0-2.38-1.93-4.31-4.31-4.31M43.66,32.65c-.04.35-.15.68-.32.99-.71,1.08-1.81,1.82-3.08,2.08-.79.18-1.49.61-2.01,1.24-.05-.49-.08-.98-.08-1.47,0-2.96.82-5,2.25-5.62.97-.4,2.09-.14,2.78.65.44.62.6,1.4.44,2.14M44.58,29.55c-1.65-.81-3.53-1.02-5.32-.59-3.43.79-5.81,3.92-5.64,7.44,0,4.26,2.81,7.23,6.83,7.23,1.9.02,3.71-.77,5-2.16.52-.56.99-1.17,1.4-1.82l-.75-.44c-.87,1.39-2.35,2.27-3.99,2.38-1.38.01-2.62-.81-3.17-2.07-.34-.74-.38-1.65.42-1.91.69-.16,1.4-.23,2.12-.21,1.97-.05,4.43-.1,5.52-2.19.53-.96.59-2.12.15-3.13-.53-1.12-1.44-2.02-2.56-2.54M93.88,32.65c-.04.35-.15.68-.32.99-.71,1.08-1.81,1.82-3.07,2.08-.79.18-1.49.61-2.01,1.24-.05-.49-.08-.98-.08-1.47,0-2.96.82-5,2.25-5.62.97-.4,2.09-.14,2.78.65.44.62.6,1.4.44,2.14M94.79,29.55c-1.65-.81-3.53-1.02-5.32-.59-3.43.79-5.81,3.92-5.65,7.44,0,4.26,2.81,7.23,6.82,7.23,1.9.02,3.71-.77,5-2.16.52-.56.99-1.17,1.4-1.82l-.75-.44c-.87,1.39-2.35,2.28-3.99,2.38-1.38.01-2.62-.81-3.17-2.07-.34-.74-.38-1.65.43-1.91.69-.16,1.4-.23,2.12-.21,1.97-.05,4.43-.1,5.52-2.19.53-.96.59-2.12.15-3.13-.53-1.12-1.44-2.02-2.57-2.54M75.62,37.98c-2.07-.06-2.29-2.91-2.29-4.15,0-2.74.78-4.12,2.31-4.12s2.36,1.55,2.36,4.2-.75,4.07-2.38,4.07M79.45,29.69c-1.14-.61-2.41-.92-3.7-.89-3.7,0-6.39,2.14-6.39,5.09,0,2.65,2.14,5.01,6.24,5.01,1.32,0,2.62-.3,3.79-.92.44.38.53,1.02.21,1.5-1.09,1.15-3.75.19-6.32.37-1.44,0-2.79.71-3.62,1.89-1.51,2.27-.65,5.04,2.13,6.89,1.32.88,2.88,1.36,4.47,1.35,1.97.11,3.87-.69,5.18-2.17.98-1.31,1.51-2.91,1.48-4.54h-3.57s1.34,2.81.43,4.4c-.57.8-1.52,1.25-2.5,1.18-.95.04-1.9-.21-2.7-.73-1.36-.72-1.87-2.41-1.14-3.77.07-.13.15-.26.24-.38.93-1.4,2.44-1.75,3.9-2.08,1.23-.28,2.45-.62,3.03-1.48.59-.96.41-2.21-.43-2.97,2.02-1.56,2.39-4.47.83-6.49-.15-.19-.3-.36-.48-.53.91-.13,1.84.01,2.67.41v-3.27c-1.52,0-2.93.78-3.73,2.08M62.75,29.05h0v14.24h4.28v-9.95c0-2.36-1.92-4.28-4.28-4.28M55.84,23.19h0v20.09h4.31v-15.79c0-2.38-1.93-4.31-4.31-4.31M64.89,23.19c-1.19,0-2.15.96-2.15,2.15s.96,2.15,2.15,2.15c1.19,0,2.15-.96,2.15-2.15s-.96-2.15-2.15-2.15h0M62.76,17.29c-.65.89-1.67,1.44-2.77,1.49-1.08,0-3.59-.56-3.59-5.78,0-3.83,1.53-6.5,3.72-6.5,1.31.11,2.38,1.08,2.63,2.36v.04s.01,8.38.01,8.38ZM67.04,4.29C67.05,1.92,65.13,0,62.76,0c0,0,0,0,0,0v6.44c-.93-.6-2.02-.9-3.13-.87-1.99.02-3.89.79-5.34,2.15-1.54,1.44-2.42,3.45-2.41,5.56-.1,3.85,2.93,7.05,6.78,7.16,1.56,0,3.04-.64,4.13-1.76l-.04,1.42h4.34s-.05-3.88-.05-4.5V4.29ZM89.13,11.1c.14-.88.65-1.65,1.4-2.13.38-.22.81-.34,1.25-.33.79,0,1.54.37,2.02,1l.52.02v-3.77s-.58-.03-1.26-.03c-1.89.06-3.54,1.29-4.13,3.08-.17-.72-.52-1.37-1.04-1.9-.71-.73-1.67-1.15-2.68-1.17h-.35v14.22h4.28v-9ZM99.93,12.29c0-2.96.82-5,2.25-5.62.97-.4,2.09-.14,2.78.65.44.62.6,1.4.44,2.14-.04.35-.15.68-.32.99-.71,1.08-1.81,1.82-3.07,2.08-.79.18-1.5.61-2.01,1.23-.05-.49-.08-.98-.08-1.48M102.18,20.44c1.9.02,3.71-.77,5-2.16.52-.56.99-1.17,1.4-1.82l-.75-.44c-.87,1.39-2.35,2.28-3.99,2.38-1.38.01-2.62-.81-3.17-2.07-.34-.74-.38-1.65.43-1.91.69-.16,1.4-.23,2.12-.21,1.97-.05,4.43-.1,5.52-2.19.53-.96.59-2.12.15-3.13-.53-1.12-1.44-2.02-2.57-2.54-1.65-.82-3.53-1.02-5.32-.59-3.43.79-5.8,3.92-5.64,7.43,0,4.26,2.81,7.23,6.82,7.23M16.78,28.72c-1.48-.02-2.92.52-4.03,1.5-.47.37-1.12,1.27-2.05,1.27-.59-.09-1.11-.42-1.45-.9h-1.1v12.7h4.28v-11.56c.68-.79,1.65-1.26,2.69-1.3,1.89,0,2.14,1.64,2.14,3.07v9.79h4.28v-9.43c.1-1.4-.34-2.79-1.25-3.88-.94-.89-2.21-1.35-3.51-1.27M134.73,36.95c-.05-.49-.08-.98-.08-1.47,0-2.96.82-5,2.25-5.62.97-.4,2.09-.14,2.78.65.44.62.6,1.4.44,2.14-.04.35-.15.68-.32.99-.71,1.08-1.81,1.82-3.07,2.08-.79.18-1.49.61-2.01,1.24M135.83,37.61c.69-.16,1.4-.23,2.12-.21,1.97-.05,4.43-.1,5.52-2.19.53-.96.59-2.12.15-3.13-.53-1.12-1.44-2.02-2.57-2.54-1.65-.81-3.53-1.02-5.32-.59-3.43.79-5.8,3.92-5.64,7.43,0,4.26,2.81,7.23,6.82,7.23,1.9.02,3.71-.77,5-2.16.52-.56.99-1.17,1.4-1.82l-.75-.44c-.87,1.39-2.35,2.28-3.99,2.38-1.38.01-2.62-.81-3.17-2.07-.34-.74-.38-1.65.43-1.91M73.61,12.29c0-2.96.82-5,2.25-5.62.97-.4,2.09-.14,2.78.65.44.62.6,1.4.44,2.14-.04.35-.15.68-.32.99-.71,1.08-1.81,1.82-3.07,2.08-.79.18-1.49.61-2.01,1.23-.05-.49-.08-.98-.08-1.48M75.87,20.44c1.9.02,3.71-.77,5-2.16.52-.56.99-1.17,1.4-1.82l-.75-.44c-.87,1.39-2.35,2.28-3.99,2.38-1.38.01-2.62-.81-3.17-2.07-.34-.74-.38-1.65.43-1.91.69-.16,1.4-.23,2.12-.21,1.97-.05,4.43-.1,5.52-2.19.53-.96.59-2.12.15-3.13-.53-1.12-1.44-2.02-2.57-2.54-1.65-.81-3.53-1.02-5.32-.59-3.43.79-5.8,3.92-5.64,7.43,0,4.26,2.81,7.23,6.82,7.23M119.04,6.5c1.31.11,2.38,1.07,2.63,2.36v.04s.01,8.38.01,8.38c-.65.89-1.67,1.44-2.77,1.49-1.08,0-3.59-.56-3.59-5.78,0-3.83,1.53-6.5,3.72-6.5M117.58,20.43c1.56,0,3.04-.64,4.13-1.76l-.04,1.42h4.34s-.05-3.88-.05-4.5V4.28C125.96,1.92,124.04,0,121.68,0v6.44c-.93-.6-2.02-.9-3.13-.87-1.99.02-3.89.79-5.34,2.15-1.54,1.44-2.42,3.45-2.41,5.56-.1,3.85,2.93,7.05,6.78,7.16M1.07,24.2h0v19.09h4.59v-14.49c0-2.54-2.05-4.59-4.59-4.59h0M40.81,8.53c.68-.79,1.65-1.26,2.69-1.3,1.89,0,2.13,1.64,2.13,3.07v9.79h4.28v-9.43c.1-1.4-.34-2.79-1.25-3.88-.94-.89-2.21-1.35-3.51-1.27-1.48-.02-2.92.52-4.03,1.5-.47.37-1.12,1.27-2.05,1.27-.59-.09-1.11-.42-1.46-.9h-1.11v12.7h4.28v-11.57ZM10.7,20.43c1.98.09,3.94-.29,5.75-1.1l.6.77h.85v-8.58h1.07v-.99h-7.94v.99h3.01v4.63c-.02,1.79-1.45,3.24-3.23,3.29-3.56,0-5.86-3.5-5.86-8.92,0-3.31.68-8.87,5.24-8.87,1.6,0,2.3,1.19,2.78,2.36.49,1.24,1.9,1.85,3.15,1.36.25-.1.49-.24.69-.42.61-.51,1.12-.98,1.12-.98-1.96-2.09-4.71-3.28-7.58-3.27C4.16.7,0,4.72,0,10.69s4,9.73,10.7,9.73"/>
</svg>