<?xml version="1.0" encoding="UTF-8"?>
<svg id="Layer_1" data-name="Layer 1" xmlns="http://www.w3.org/2000/svg" width="203.65" height="70.76" viewBox="0 0 203.65 70.76">
  <defs>
    <style>
      .cls-1 {
        fill: #fff;
        stroke-width: 0px;
      }
    </style>
  </defs>
  <path id="Path_5188" data-name="Path 5188" class="cls-1" d="M153.15,40.64c-2.1-.03-4.13.73-5.7,2.13-.66.52-1.59,1.8-2.9,1.8-.83-.13-1.57-.59-2.05-1.27h-1.57v17.96h6.07v-16.36c.96-1.11,2.34-1.78,3.81-1.84,2.68,0,3.02,2.33,3.02,4.35v13.84h6.05v-13.34c.15-1.99-.49-3.96-1.76-5.49-1.33-1.26-3.13-1.91-4.96-1.79M178.02,57.76c-1.73,1.22-4.82,1.71-6.82-.12-1.5-1.38-2.24-3.99-2.24-7.43,0-5.15,1.69-8.22,4.53-8.22,2.56,0,2.99,2.81,3.86,5.5l3.64-3.2c-1.94-2.39-4.9-3.72-7.97-3.59-6.1,0-10.52,4.55-10.52,10.81s3.97,10.24,9.66,10.24c2.64.01,5.17-1.04,7.04-2.91,1.1-1.1,2.08-2.32,2.92-3.63l-1.07-.62c-.81,1.23-1.84,2.31-3.03,3.18M42.63,59.37c-.53.04-1.06-.13-1.47-.49-.52-.7-.77-1.58-.68-2.45v-13.79c.61,0,1.2.18,1.72.49,1.01.71,1.98,1.48,2.91,2.3h.57l-.04-4.22h-5.17c-.27-3.1-2.95-5.43-6.06-5.27v5.19l-2.38.04v1.51h2.38v13.56c0,3.6,1.86,5.51,5.79,5.51,1.46,0,2.88-.48,4.04-1.37,1.08-.87,1.9-2.02,2.35-3.33l-1.28.07s-.91,2.25-2.69,2.25M35.82,19.47c-.08-.69-.11-1.39-.11-2.09,0-4.19,1.17-7.08,3.18-7.95,1.38-.57,2.96-.19,3.94.93.62.88.85,1.98.63,3.03-.06.49-.21.97-.45,1.4-.93,1.77-2.67,2.36-4.35,2.94-1.12.25-2.11.87-2.84,1.75M45.98,25.86c.74-.79,1.4-1.65,1.98-2.57l-1.06-.63s-2.01,3.37-5.64,3.37c-1.95.01-3.71-1.14-4.48-2.93-.48-1.05-.54-2.33.6-2.7.98-.22,1.99-.32,2.99-.29,2.79-.07,6.27-.15,7.81-3.09.76-1.36.83-3,.21-4.43-.75-1.58-2.04-2.86-3.63-3.59-2.33-1.15-5-1.45-7.53-.83-4.85,1.12-7.98,5.24-7.98,10.52,0,6.03,3.97,10.24,9.66,10.24,2.68.02,5.25-1.09,7.07-3.06M69.69,32.82h0v28.43h6.1v-22.34c0-3.37-2.73-6.1-6.1-6.1M61.78,46.21c-.06.49-.21.97-.45,1.4-.93,1.77-2.67,2.36-4.35,2.94-1.11.25-2.11.87-2.84,1.75-.08-.69-.11-1.39-.11-2.09,0-4.19,1.17-7.08,3.18-7.95,1.38-.57,2.96-.19,3.94.92.62.88.85,1.98.63,3.03M63.08,41.82c-2.33-1.15-5-1.45-7.52-.83-4.85,1.12-7.98,5.24-7.98,10.51,0,6.03,3.97,10.24,9.66,10.24,2.68.02,5.25-1.09,7.08-3.06.74-.79,1.4-1.65,1.98-2.57l-1.06-.63s-2.01,3.37-5.64,3.37c-1.95.01-3.71-1.14-4.48-2.93-.48-1.05-.54-2.33.6-2.7.98-.22,1.99-.32,2.99-.29,2.79-.07,6.27-.15,7.81-3.09.76-1.36.83-3,.21-4.43-.75-1.58-2.04-2.86-3.63-3.6M132.83,46.21c-.06.49-.21.97-.45,1.4-.93,1.77-2.67,2.36-4.35,2.94-1.11.25-2.11.87-2.84,1.75-.08-.69-.11-1.39-.11-2.09,0-4.19,1.17-7.08,3.18-7.95,1.38-.57,2.96-.19,3.94.92.62.88.85,1.98.63,3.03M134.13,41.82c-2.33-1.15-5-1.45-7.53-.83-4.85,1.12-7.98,5.24-7.98,10.52,0,6.03,3.97,10.24,9.66,10.24,2.68.02,5.25-1.09,7.07-3.06.74-.79,1.4-1.65,1.98-2.57l-1.06-.63s-2.01,3.37-5.64,3.37c-1.95.01-3.71-1.14-4.48-2.93-.48-1.05-.54-2.33.6-2.7.98-.22,1.99-.32,2.99-.29,2.79-.07,6.27-.15,7.81-3.09.76-1.36.83-3,.21-4.43-.75-1.58-2.04-2.86-3.63-3.6M107.01,53.75c-2.92-.09-3.24-4.12-3.24-5.87,0-3.87,1.1-5.83,3.27-5.83s3.34,2.19,3.34,5.94-1.07,5.76-3.37,5.76M112.43,42c-1.61-.87-3.41-1.3-5.24-1.25-5.24,0-9.04,3.03-9.04,7.2,0,3.76,3.02,7.09,8.83,7.09,1.87.01,3.71-.43,5.36-1.29.62.53.75,1.44.3,2.12-1.54,1.63-5.31.26-8.94.53-2.04,0-3.95,1-5.13,2.67-2.14,3.21-.93,7.13,3.01,9.76,1.87,1.25,4.07,1.92,6.33,1.92,2.78.15,5.48-.98,7.32-3.07,1.39-1.85,2.13-4.11,2.1-6.43h-5.05s1.9,3.98.61,6.23c-.81,1.13-2.15,1.76-3.53,1.67-1.35.06-2.69-.3-3.82-1.03-2.21-1.48-2.7-3.73-1.28-5.87,1.32-1.98,3.45-2.47,5.51-2.94,1.74-.4,3.46-.88,4.28-2.09.83-1.36.58-3.13-.61-4.2,2.86-2.21,3.38-6.32,1.17-9.18-.21-.27-.43-.51-.67-.74,1.29-.19,2.6.02,3.77.58v-4.61c-2.15,0-4.15,1.1-5.28,2.94M88.8,41.12h0v20.14h6.06v-14.08c0-3.34-2.71-6.06-6.06-6.06M79.02,32.82h0v28.44h6.1v-22.34c0-3.37-2.73-6.1-6.1-6.1M91.83,32.82c-1.68,0-3.04,1.36-3.04,3.04s1.36,3.04,3.04,3.04,3.04-1.36,3.04-3.04-1.36-3.04-3.04-3.04h0M88.8,24.47c-.92,1.26-2.36,2.04-3.92,2.11-1.53,0-5.08-.8-5.08-8.18,0-5.41,2.16-9.2,5.26-9.2,1.66,0,3.05,1.25,3.72,3.34l.02.06v11.87ZM94.87,6.07C94.87,2.72,92.15,0,88.8,0c0,0,0,0,0,0v9.11c-1.32-.85-2.86-1.28-4.43-1.23-2.81.03-5.51,1.12-7.55,3.05-2.18,2.04-3.42,4.89-3.4,7.88-.14,5.44,4.15,9.97,9.59,10.13,2.2-.01,4.31-.91,5.84-2.49l-.05,2.01h6.14s-.07-5.49-.07-6.37V6.07ZM126.13,15.7c.2-1.24.92-2.34,1.98-3.02.53-.31,1.15-.48,1.76-.47,1.13,0,2.19.52,2.87,1.42l.74.04v-5.33s-.82-.05-1.78-.05c-2.66,0-4.71,1.68-5.85,4.35-.23-1.01-.74-1.94-1.47-2.69-1-1.03-2.37-1.62-3.8-1.65h-.5v20.12h6.05v-12.74ZM141.4,17.38c0-4.19,1.17-7.08,3.18-7.95,1.38-.57,2.96-.19,3.94.93.62.88.85,1.98.63,3.03-.06.49-.21.97-.45,1.4-.93,1.77-2.67,2.36-4.35,2.94-1.12.25-2.11.87-2.84,1.75-.08-.69-.11-1.39-.11-2.09M144.61,28.92c2.68.02,5.25-1.09,7.07-3.06.74-.79,1.4-1.65,1.98-2.57l-1.06-.63s-2.01,3.37-5.64,3.37c-1.95.01-3.71-1.14-4.48-2.93-.48-1.05-.54-2.33.6-2.7.98-.22,1.99-.32,2.99-.29,2.79-.07,6.27-.15,7.81-3.09.76-1.36.83-3,.21-4.43-.76-1.58-2.04-2.85-3.63-3.59-2.33-1.15-5-1.45-7.52-.83-4.85,1.12-7.98,5.24-7.98,10.52,0,6.03,3.97,10.24,9.66,10.24M23.75,40.64c-2.1-.03-4.13.73-5.7,2.13-.66.52-1.59,1.8-2.9,1.8-.83-.13-1.57-.59-2.06-1.27h-1.57v17.96h6.06v-16.36c.96-1.11,2.34-1.78,3.81-1.84,2.68,0,3.02,2.33,3.02,4.35v13.85h6.06v-13.34c.15-1.99-.49-3.96-1.76-5.49-1.33-1.26-3.13-1.91-4.97-1.79M190.66,52.29c-.08-.69-.11-1.39-.11-2.09,0-4.19,1.17-7.08,3.18-7.95,1.38-.57,2.96-.19,3.94.92.62.88.85,1.98.63,3.03-.06.49-.21.97-.45,1.4-.93,1.77-2.67,2.36-4.35,2.94-1.11.25-2.11.87-2.84,1.75M192.21,53.22c.98-.22,1.99-.32,2.99-.29,2.79-.07,6.27-.15,7.81-3.09.76-1.36.83-3,.21-4.43-.75-1.58-2.04-2.86-3.63-3.6-2.33-1.15-5-1.45-7.52-.83-4.85,1.12-7.98,5.24-7.98,10.52,0,6.03,3.97,10.24,9.66,10.24,2.68.02,5.25-1.09,7.07-3.06.74-.79,1.4-1.65,1.98-2.57l-1.06-.63s-2.01,3.37-5.64,3.37c-1.95.01-3.71-1.14-4.48-2.93-.48-1.05-.54-2.33.6-2.7M104.16,17.39c0-4.19,1.17-7.08,3.18-7.95,1.38-.57,2.96-.19,3.94.93.62.88.85,1.98.63,3.03-.06.49-.21.97-.45,1.4-.93,1.77-2.67,2.36-4.35,2.94-1.12.25-2.11.87-2.84,1.75-.08-.69-.11-1.39-.11-2.09M107.36,28.92c2.68.02,5.25-1.09,7.07-3.06.74-.79,1.4-1.65,1.98-2.57l-1.06-.63s-2.01,3.37-5.64,3.37c-1.95.01-3.71-1.14-4.48-2.93-.48-1.05-.54-2.33.6-2.7.98-.22,1.99-.32,2.99-.29,2.79-.07,6.27-.15,7.81-3.09.76-1.36.83-3,.21-4.43-.75-1.58-2.04-2.86-3.63-3.59-2.33-1.15-5-1.45-7.53-.83-4.85,1.12-7.98,5.23-7.98,10.52,0,6.03,3.97,10.24,9.66,10.24M168.45,9.2c1.66,0,3.05,1.25,3.72,3.34l.02.06v11.86c-.92,1.26-2.36,2.04-3.92,2.11-1.53,0-5.08-.8-5.08-8.18,0-5.41,2.16-9.2,5.26-9.2M166.39,28.92c2.2-.01,4.31-.91,5.84-2.49l-.05,2.01h6.14s-.07-5.49-.07-6.37V6.06c0-3.35-2.72-6.06-6.07-6.06v9.11c-1.32-.85-2.86-1.28-4.43-1.23-2.81.03-5.51,1.12-7.55,3.05-2.19,2.04-3.42,4.89-3.41,7.88-.14,5.44,4.15,9.97,9.59,10.13M1.52,34.25h0v27.01h6.5v-20.51c0-3.59-2.91-6.5-6.5-6.5M57.76,12.07c.96-1.11,2.34-1.78,3.81-1.84,2.68,0,3.02,2.33,3.02,4.35v13.85h6.06v-13.34c.15-1.99-.49-3.96-1.76-5.49-1.33-1.26-3.13-1.91-4.96-1.79-2.1-.03-4.13.73-5.7,2.13-.66.52-1.59,1.8-2.9,1.8-.83-.13-1.57-.59-2.06-1.27h-1.56v17.95h6.06V12.07ZM15.15,28.91c2.8.13,5.58-.41,8.13-1.56l.85,1.09h1.19v-12.15h1.51v-1.4h-11.24v1.4h4.25v6.55c-.02,2.53-2.04,4.58-4.56,4.66-5.04,0-8.29-4.95-8.29-12.62,0-4.69.96-12.55,7.42-12.55,2.26,0,3.26,1.69,3.94,3.34.7,1.76,2.69,2.63,4.45,1.93.36-.14.69-.34.98-.59.87-.72,1.58-1.38,1.58-1.38-2.78-2.96-6.67-4.64-10.73-4.62C5.88,1,0,6.68,0,15.13s5.66,13.77,15.15,13.77"/>
</svg>