<svg xmlns="http://www.w3.org/2000/svg" width="190.106" height="84.502" viewBox="0 0 190.106 84.502">
  <g id="Group_4954" data-name="Group 4954" transform="translate(-697 -4812.992)">
    <path id="Path_5144" data-name="Path 5144" d="M184.752,130.974l-6.473,19.855-.486-19.855h-6.619l-9.636,27.982h5.548l5.937-18.249.536,18.249h6.91l9.636-27.982ZM54.9,126.1l2.677-5.353H64.73l-.487,5.353H70.18L72.127,98.12H63.951L48.427,126.1Zm11.34-22.775-1.071,12.409h-5.11ZM32.122,126.1l2.676-7.738h1.168c.389,5.694,3.163,8.175,7.446,8.175a6.922,6.922,0,0,0,4.428-1.509L46.429,120.8a3.159,3.159,0,0,1-2.044,1.022c-1.9,0-2.92-1.509-3.212-4.185,5.451-1.557,10.365-5.45,10.365-11.485,0-6.521-5.451-10.171-15.718-8.029v.1L26.233,126.1Zm8.029-23.359c3.017-.244,5.207.633,5.207,3.7,0,3.406-3.261,6.813-8.907,7.056ZM17.762,126.1l7.932-22.97h5.792l1.7-5.012H15.475l-1.7,5.012h5.839L11.679,126.1Zm91.89-7.64a3.418,3.418,0,0,1-3.6,3.309,2.94,2.94,0,0,1-3.261-3.066,5.789,5.789,0,0,1,.828-2.774L98.9,113.547a9.672,9.672,0,0,0-2.044,5.791c0,4.136,3.31,7.64,8.517,7.64,5.888,0,10.268-3.747,10.268-9.2,0-7.348-7.981-8.029-7.981-12.263a2.915,2.915,0,0,1,3.017-3.018c1.849,0,3.163,1.85,2.239,4.818h5.547c1.363-3.941-.389-9.733-7.542-9.733a9.157,9.157,0,0,0-9.15,8.954c0,7.007,7.884,7.4,7.884,11.923m-25.8-10.609.536,18.249H91.3l9.636-27.982H95.586l-6.473,19.855L88.627,98.12H82.008L72.373,126.1h5.548Zm57.092,20.834c2.336,0,4.526-2.579,4.526-5.012A2.787,2.787,0,0,0,142.6,120.8c-2.385,0-4.526,2.433-4.526,4.964a2.72,2.72,0,0,0,2.871,2.92m14.649,1.8c-9.149,0-14.939,11-14.939,19.417,0,5.207,2.676,9.538,8.468,9.538,8.856,0,14.551-10.219,14.551-18.882,0-5.548-2.629-10.073-8.079-10.073m-5.742,23.164c-2.044,0-3.163-1.411-3.163-4.136,0-5.45,3.358-13.091,7.786-13.091,1.9,0,3.115,1.7,3.115,4.38,0,5.256-3.6,12.847-7.737,12.847M136.57,130.974l-9.635,27.982h6.083l9.635-27.982ZM80.938,147.52l1.753-5.061H76.12l2.239-6.473h9.586l1.753-5.012H73.979l-9.636,27.982h15.67l1.752-5.061H72.179l2.19-6.375Zm37.721-9.148a2.915,2.915,0,0,1,3.017-3.018c1.85,0,3.163,1.85,2.239,4.818h5.548c1.363-3.941-.39-9.733-7.543-9.733a9.157,9.157,0,0,0-9.149,8.955c0,7.007,7.883,7.4,7.883,11.922a3.417,3.417,0,0,1-3.6,3.309,2.94,2.94,0,0,1-3.261-3.066,5.8,5.8,0,0,1,.827-2.774L109.9,146.4a9.671,9.671,0,0,0-2.044,5.791c0,4.136,3.309,7.64,8.515,7.64,5.889,0,10.269-3.747,10.269-9.2,0-7.348-7.982-8.029-7.982-12.263m-12.072-7.4-6.473,19.855-.486-19.855H93.01l-9.636,27.982h5.548l5.937-18.249.536,18.249h6.91l9.636-27.982Zm-97.1.1L0,158.616c12.846,3.017,24.965-4.185,24.965-17.52,0-8.662-6.96-11.825-15.476-10.024M7.542,154.041l6.229-18.152c3.066,0,5.207,1.412,5.207,5.207,0,7.057-4.817,12.312-11.436,12.945M32.9,130.974l-9.635,27.982h6.083l9.635-27.982Zm26.378,0-9.246,20.05,2-20.05H44.873L32.852,158.956h6.034l7.592-19.368-1.7,19.368h5.353l10.024-20.244-4.72,20.244h5.985l5.45-27.982Z" transform="translate(697 4737.662)" fill="#040f39"/>
    <path id="Path_5146" data-name="Path 5146" d="M65.566,14.1c-1.052.89-2.724,2.184-4.261,2.184-1.375,0-2.1-.512-2.319-1.4,2.508.566,6.256-.755,6.256-4.019a3.249,3.249,0,0,0-3.4-3.317c-3.318,0-5.591,2.763-6.02,5.865-.947,1.5-1.9,2.468-2.559,2.468a.417.417,0,0,1-.458-.431c0-.971,2.157-3.613,2.1-5.69a2.126,2.126,0,0,0-2.157-2.212A4.261,4.261,0,0,0,49.22,9.924c.759-2.3,1.54-4.583,2.367-6.876h.021l.407-1.18c.031-.083.06-.166.091-.249h0L52.659,0H36.381L35.329,3.048H40.56c-2.1,5.987-4.126,12-6.175,17.987h3.506c1.969-5.987,4.018-12,6.148-17.987h4.387C46.463,8.7,44.661,13.93,43.044,18.608H46.28c.728-2.454,2.724-8.2,4.639-8.2.378,0,.512.27.512.593,0,1.106-1.941,3.4-1.941,5.447a2.3,2.3,0,0,0,2.561,2.427c1.489,0,2.9-1.108,4.069-2.5a4.644,4.644,0,0,0,4.51,2.5,8.936,8.936,0,0,0,6.122-2.562ZM61.6,10.086c.486,0,.782.3.755.89-.054,1.24-1.834,2.049-3.317,2,.35-1.618,1.375-2.886,2.562-2.886" transform="translate(670.435 4812.992)" fill="#fff"/>
  </g>
</svg>
