<svg xmlns="http://www.w3.org/2000/svg" xmlns:xlink="http://www.w3.org/1999/xlink" width="252" height="69.975" viewBox="0 0 252 69.975">
  <defs>
    <clipPath id="clip-path">
      <path id="Path_5138" data-name="Path 5138" d="M167.276-348.135v-.215a2.056,2.056,0,0,1,2.312-2.191c1.45,0,2.286.708,2.286,2.808a12.021,12.021,0,0,1-.187,2.158l2.9.187a18.826,18.826,0,0,0,.215-2.686c0-3.175-1.571-5.4-5.275-5.4-3.888,0-5.8,2.686-5.8,5.34v.248c0,2.775,2.039,5.214,4.384,7.466,2.743,2.654,3.514,3.7,3.514,5.368v.4a2.186,2.186,0,0,1-2.4,2.438c-1.391,0-2.469-.9-2.469-2.841a10.139,10.139,0,0,1,.243-2.28l-2.9-.187a16.488,16.488,0,0,0-.276,2.621c0,3.7,1.945,5.646,5.46,5.646,3.336,0,5.9-2.158,5.9-5.674v-.276c0-2.378-.956-4.356-4.94-8.333-2.219-2.221-2.96-3.149-2.96-4.6Zm5.092-19.058c0,1.76-.619,2.962-2.252,2.962-1.7,0-2.286-1.263-2.286-2.745v-12.775c0-1.726.648-2.836,2.193-2.836,1.665,0,2.28.65,2.28,3.084a7.573,7.573,0,0,1-.215,2.161l2.962.217a15.8,15.8,0,0,0,.246-2.719c0-3.884-2-5.768-5.212-5.768-3.332,0-5.8,1.665-5.8,6.17V-367.5c0,4.412,1.852,6.109,5.092,6.109a4.657,4.657,0,0,0,4.012-2.251h.122l1.052,1.882h1.354v-11.108h-3.545Zm-32.212-25.326a25.364,25.364,0,0,0-19.35-2.549,25.521,25.521,0,0,0-4.379,1.63,25.29,25.29,0,0,0-10.93-2.5,25.529,25.529,0,0,0-25.5,25.5,25.48,25.48,0,0,0,11.067,21,25.29,25.29,0,0,0,3.308,10.724A25.505,25.505,0,0,0,116.5-325.971a25.325,25.325,0,0,0,12.7-3.414,25.314,25.314,0,0,0,11.884-15.481,26.375,26.375,0,0,0,.787-4.629,25.27,25.27,0,0,0,7.616-8.194,25.523,25.523,0,0,0-9.33-34.831Zm-23.646,3.484a21.7,21.7,0,0,1,10.2,14.264,25.478,25.478,0,0,0-20.4-.074,21.529,21.529,0,0,1,2.358-6.411,21.415,21.415,0,0,1,7.844-7.779Zm10.621,18.778A21.637,21.637,0,0,1,116.445-351.8a21.493,21.493,0,0,1-9.943-13.042,21.758,21.758,0,0,1-.661-5.477,21.626,21.626,0,0,1,21.29.059ZM91.149-354.281a21.566,21.566,0,0,1-7.294-16.155A21.666,21.666,0,0,1,105.5-392.078a21.5,21.5,0,0,1,6.8,1.108,25.361,25.361,0,0,0-6.977,7.785,25.356,25.356,0,0,0-3.319,10.739,25.445,25.445,0,0,0-10.856,18.165Zm10.936-13.373a26.108,26.108,0,0,0,.689,3.816A25.35,25.35,0,0,0,112.3-349.9a21.614,21.614,0,0,1-6.8,1.108,21.452,21.452,0,0,1-10.658-2.832,21.71,21.71,0,0,1,7.246-16.026Zm35.272,21.788a21.487,21.487,0,0,1-10.084,13.142,21.669,21.669,0,0,1-29.562-7.92,21.516,21.516,0,0,1-2.438-6.455,25.255,25.255,0,0,0,10.226,2.16,25.352,25.352,0,0,0,10.982-2.519,25.3,25.3,0,0,0,10.882,2.515,25.623,25.623,0,0,0,10.2-2.151c-.085.409-.093.821-.2,1.228Zm-16.8-4.038a25.493,25.493,0,0,0,10.278-17.717,21.661,21.661,0,0,1,4.362,5.336,21.485,21.485,0,0,1,2.812,10.682,21.682,21.682,0,0,1-17.452,1.7Zm25.591-9.713a21.5,21.5,0,0,1-4.36,5.331,25.419,25.419,0,0,0-3.254-9.928,25.261,25.261,0,0,0-7.639-8.224A25.454,25.454,0,0,0,120.642-390.9c.4-.128.759-.328,1.163-.437a21.517,21.517,0,0,1,16.424,2.164,21.662,21.662,0,0,1,7.92,29.56Zm42.748-5.136h-5.955V-372.5h5.092v-2.995h-5.092v-6.724h5.894v-2.995h-9.443v23.453h9.5Zm69.483,3.362c3.149,0,5.864-1.73,5.864-6.016v-12.064c0-4.538-2.682-6.142-5.864-6.142s-5.955,1.665-5.955,6.142v12.064c0,4.286,2.747,6.016,5.955,6.016Zm-2.406-18.543c0-1.73.956-2.625,2.378-2.625a2.331,2.331,0,0,1,2.315,2.625v12.927c0,1.632-.863,2.656-2.286,2.656a2.387,2.387,0,0,1-2.406-2.689Zm-71.682,26.458c-3.177,0-5.957,1.667-5.957,6.142v12.064c0,4.29,2.749,6.016,5.957,6.016,3.147,0,5.862-1.726,5.862-6.016v-12.064c0-4.538-2.682-6.142-5.862-6.142Zm2.284,18.608c0,1.637-.867,2.654-2.284,2.654a2.383,2.383,0,0,1-2.406-2.686v-12.895c0-1.73.956-2.626,2.378-2.626a2.331,2.331,0,0,1,2.312,2.626Zm94.746-18.206-4.136,23.453h3.208l.528-3.488h4.412l.583,3.488H289.5l-4.164-23.453Zm.028,16.97,1.606-12.186h.152L284.87-336.1Zm-2.758-29.2c0-.556-.033-1.513-.033-2.193-.061-3.147-.676-4.847-3.056-5.4v-.154c2.562-.741,3.582-2.838,3.582-6.17,0-4.136-2.317-5.987-5.492-5.987h-5.835v23.453h3.549v-9.63h1.3c1.852,0,2.223,1.2,2.312,4.138.033,1.45.065,2.591.126,4.29a3.531,3.531,0,0,0,.215,1.2h3.764a9.328,9.328,0,0,1-.43-3.547Zm-5.74-8.922h-1.545v-7.989h1.6c1.639,0,2.628.83,2.628,3.671,0,3.395-1.111,4.318-2.686,4.318ZM270.7-342.954h-4.994v-10.119h-3.549v23.453h3.549v-10.339H270.7v10.339h3.549v-23.453H270.7Zm29.986,3.149h-.12l-4.725-13.268h-3.423v23.453H295.6v-14.624h.124l5.153,14.624h2.995v-23.453h-3.182Zm25.357,7.19v-7.746h5.094v-2.993h-5.094v-6.726h5.9v-2.993h-9.446v23.453H332v-2.995Zm-10.576-2.439c0,1.758-.617,2.967-2.254,2.967-1.7,0-2.284-1.269-2.284-2.747v-12.777c0-1.728.648-2.836,2.191-2.836,1.665,0,2.286.648,2.286,3.086a7.756,7.756,0,0,1-.215,2.16l2.96.213a16.206,16.206,0,0,0,.248-2.712c0-3.89-2.006-5.775-5.214-5.775-3.334,0-5.8,1.667-5.8,6.17v11.943c0,4.412,1.85,6.109,5.088,6.109a4.645,4.645,0,0,0,4.01-2.252h.126l1.05,1.884h1.356v-11.108h-3.547Zm-56.629-10.089a20.431,20.431,0,0,0,.187-2.9c0-4.01-2.193-5.433-5.275-5.433-3.119,0-5.681,1.73-5.681,6.357v11.7c0,4.625,2.5,6.2,5.649,6.2,3.054,0,5.307-1.389,5.307-5.431a15.824,15.824,0,0,0-.215-2.93l-2.9.248a9.991,9.991,0,0,1,.183,2.13c0,2.249-.737,2.991-2.126,2.991-1.639,0-2.347-1.017-2.347-2.562v-13.177a2.306,2.306,0,0,1,2.347-2.528c1.417,0,2.1.68,2.1,3.025a11.269,11.269,0,0,1-.187,2.1Zm-40.562-7.931L214.14-329.62h3.208l.528-3.488h4.412l.587,3.488h3.577l-4.164-23.453Zm.028,16.97,1.6-12.186h.159l1.758,12.186Zm-5.251-39.912,3.83-9.2h-3.488l-4.966,12.653h-.093v-12.653h-3.549v23.453h3.549v-5.833l2.5-4.473,2.5,10.306h3.7Zm-5.366,46.395h3.549v-23.453h-3.549Zm-3.314-15.522a21.114,21.114,0,0,0,.183-2.9c0-4.01-2.188-5.433-5.275-5.433-3.117,0-5.681,1.73-5.681,6.357v11.7c0,4.625,2.5,6.2,5.649,6.2,3.054,0,5.307-1.389,5.307-5.431a15.453,15.453,0,0,0-.215-2.93l-2.9.248a9.671,9.671,0,0,1,.187,2.13c0,2.249-.741,2.991-2.13,2.991-1.634,0-2.347-1.017-2.347-2.562v-13.177a2.306,2.306,0,0,1,2.347-2.528c1.421,0,2.1.68,2.1,3.025a11.265,11.265,0,0,1-.187,2.1Zm28.549-7.931h-3.549v23.453h9.5v-2.995h-5.955Zm15.831-21.586h-5.088v-7.559h5.89v-2.995h-9.439v23.453h3.549v-9.876h5.088Zm-47.16,9.906h-5.955V-372.5h5.092v-2.995h-5.092v-6.724h5.894v-2.995h-9.443v23.453h9.5Zm28.958-2.593c0-2.375-.956-4.351-4.934-8.331-2.225-2.223-2.967-3.147-2.967-4.6v-.22a2.057,2.057,0,0,1,2.312-2.189c1.456,0,2.286.711,2.286,2.8a12.161,12.161,0,0,1-.187,2.165l2.9.183a18.107,18.107,0,0,0,.219-2.682c0-3.182-1.576-5.4-5.279-5.4-3.89,0-5.8,2.686-5.8,5.34v.245c0,2.775,2.039,5.216,4.384,7.468,2.747,2.654,3.516,3.7,3.516,5.366v.4a2.191,2.191,0,0,1-2.406,2.441c-1.389,0-2.467-.9-2.467-2.843a10.119,10.119,0,0,1,.248-2.28l-2.9-.185a16.454,16.454,0,0,0-.28,2.619c0,3.7,1.945,5.648,5.462,5.648,3.334,0,5.894-2.16,5.894-5.679Z" transform="translate(-80 395.946)" fill="#fff" clip-rule="evenodd"/>
    </clipPath>
    <clipPath id="clip-path-2">
      <path id="Path_5137" data-name="Path 5137" d="M0,548.811H1924.054V-781H0Z" transform="translate(0 781)" fill="#fff"/>
    </clipPath>
  </defs>
  <g id="Group_4813" data-name="Group 4813" clip-path="url(#clip-path)">
    <g id="Group_4812" data-name="Group 4812" transform="translate(-136.216 -655.633)" clip-path="url(#clip-path-2)">
      <path id="Path_5136" data-name="Path 5136" d="M75-400.946H344.027v87H75Z" transform="translate(52.703 1048.065)" fill="#fff"/>
    </g>
  </g>
</svg>
