<svg id="Access_icon_in_callout_box" data-name="Access icon in callout box" xmlns="http://www.w3.org/2000/svg" width="30" height="30" viewBox="0 0 30 30">
  <circle id="Ellipse_1" data-name="Ellipse 1" cx="15" cy="15" r="15" fill="#040f39"/>
  <path id="Path_5182" data-name="Path 5182" d="M6.222,3.556A1.778,1.778,0,1,0,4.444,1.778,1.777,1.777,0,0,0,6.222,3.556m7.839,11.556-.746-3.73a.889.889,0,0,0-.871-.715H8.771L8.389,8h4.055V6.222H8.136L7.991,5.207a.89.89,0,0,0-.88-.763H6.222a.891.891,0,0,0-.889.894.911.911,0,0,0,.009.121l.78,5.46a1.786,1.786,0,0,0,1.76,1.525h3.834l.746,3.73a.89.89,0,0,0,.872.715H16V15.111ZM9.342,13.778A3.991,3.991,0,1,1,4.282,8.3L4.025,6.5A5.776,5.776,0,1,0,10.707,15l-.244-1.221Z" transform="translate(7 5)" fill="#fff"/>
</svg>
